<mxfile host="Electron" modified="2023-10-07T20:18:15.787Z" agent="Mozilla/5.0 (X11; Linux x86_64) AppleWebKit/537.36 (KHTML, like Gecko) draw.io/22.0.2 Chrome/114.0.5735.289 Electron/25.8.4 Safari/537.36" etag="6Dia6hHkTniwlzNpENm2" version="22.0.2" type="device">
  <diagram name="Page-1" id="HN-XVJ2sGxhUSEs0gRUM">
    <mxGraphModel dx="1739" dy="777" grid="1" gridSize="10" guides="1" tooltips="1" connect="1" arrows="1" fold="1" page="1" pageScale="1" pageWidth="827" pageHeight="1169" math="0" shadow="0">
      <root>
        <mxCell id="0" />
        <mxCell id="1" parent="0" />
        <mxCell id="BoMmlxDTdHgLbSkk9d63-17" value="" style="rounded=1;whiteSpace=wrap;html=1;fillColor=none;" vertex="1" parent="1">
          <mxGeometry x="480" y="60" width="300" height="300" as="geometry" />
        </mxCell>
        <mxCell id="BoMmlxDTdHgLbSkk9d63-16" value="" style="rounded=1;whiteSpace=wrap;html=1;dashed=1;dashPattern=12 12;fillColor=none;" vertex="1" parent="1">
          <mxGeometry x="500" y="80" width="260" height="220" as="geometry" />
        </mxCell>
        <mxCell id="BoMmlxDTdHgLbSkk9d63-4" value="" style="rounded=1;whiteSpace=wrap;html=1;fillColor=none;" vertex="1" parent="1">
          <mxGeometry x="80" y="60" width="300" height="300" as="geometry" />
        </mxCell>
        <mxCell id="BoMmlxDTdHgLbSkk9d63-5" value="" style="rounded=1;whiteSpace=wrap;html=1;dashed=1;dashPattern=12 12;fillColor=none;" vertex="1" parent="1">
          <mxGeometry x="100" y="80" width="260" height="220" as="geometry" />
        </mxCell>
        <mxCell id="BoMmlxDTdHgLbSkk9d63-7" value="" style="image;sketch=0;aspect=fixed;html=1;points=[];align=center;fontSize=12;image=img/lib/mscae/OpenShift.svg;" vertex="1" parent="1">
          <mxGeometry x="316.52" y="310" width="43.48" height="40" as="geometry" />
        </mxCell>
        <mxCell id="BoMmlxDTdHgLbSkk9d63-8" style="edgeStyle=orthogonalEdgeStyle;rounded=0;orthogonalLoop=1;jettySize=auto;html=1;exitX=0.5;exitY=1;exitDx=0;exitDy=0;" edge="1" parent="1" source="BoMmlxDTdHgLbSkk9d63-5" target="BoMmlxDTdHgLbSkk9d63-5">
          <mxGeometry relative="1" as="geometry" />
        </mxCell>
        <mxCell id="BoMmlxDTdHgLbSkk9d63-9" value="Developer Sandbox for Red Hat OpenShift" style="text;strokeColor=none;align=center;fillColor=none;html=1;verticalAlign=middle;whiteSpace=wrap;rounded=0;" vertex="1" parent="1">
          <mxGeometry x="100" y="320" width="210" height="30" as="geometry" />
        </mxCell>
        <mxCell id="BoMmlxDTdHgLbSkk9d63-10" value="Namespace" style="text;strokeColor=none;align=center;fillColor=none;html=1;verticalAlign=middle;whiteSpace=wrap;rounded=0;" vertex="1" parent="1">
          <mxGeometry x="43" y="79" width="210" height="30" as="geometry" />
        </mxCell>
        <mxCell id="BoMmlxDTdHgLbSkk9d63-11" value="Skupper Router" style="text;strokeColor=none;align=center;fillColor=none;html=1;verticalAlign=middle;whiteSpace=wrap;rounded=0;fontFamily=Courier New;" vertex="1" parent="1">
          <mxGeometry x="250" y="260" width="100" height="30" as="geometry" />
        </mxCell>
        <mxCell id="BoMmlxDTdHgLbSkk9d63-13" value="" style="verticalLabelPosition=bottom;sketch=0;html=1;fillColor=#A153A0;strokeColor=#ffffff;verticalAlign=top;align=center;points=[[0,0.5,0],[0.125,0.25,0],[0.25,0,0],[0.5,0,0],[0.75,0,0],[0.875,0.25,0],[1,0.5,0],[0.875,0.75,0],[0.75,1,0],[0.5,1,0],[0.125,0.75,0]];pointerEvents=1;shape=mxgraph.cisco_safe.compositeIcon;bgIcon=mxgraph.cisco_safe.design.blank_device;resIcon=mxgraph.cisco_safe.design.router;" vertex="1" parent="1">
          <mxGeometry x="275" y="215" width="50" height="45" as="geometry" />
        </mxCell>
        <mxCell id="BoMmlxDTdHgLbSkk9d63-14" value="" style="verticalLabelPosition=bottom;sketch=0;html=1;fillColor=#A153A0;strokeColor=#ffffff;verticalAlign=top;align=center;points=[[0,0.5,0],[0.125,0.25,0],[0.25,0,0],[0.5,0,0],[0.75,0,0],[0.875,0.25,0],[1,0.5,0],[0.875,0.75,0],[0.75,1,0],[0.5,1,0],[0.125,0.75,0]];pointerEvents=1;shape=mxgraph.cisco_safe.compositeIcon;bgIcon=mxgraph.cisco_safe.design.blank_device;resIcon=mxgraph.cisco_safe.design.router_2;" vertex="1" parent="1">
          <mxGeometry x="535" y="215" width="50" height="45" as="geometry" />
        </mxCell>
        <mxCell id="BoMmlxDTdHgLbSkk9d63-18" value="Skupper Gateway" style="text;strokeColor=none;align=center;fillColor=none;html=1;verticalAlign=middle;whiteSpace=wrap;rounded=0;fontFamily=Courier New;" vertex="1" parent="1">
          <mxGeometry x="508" y="260" width="100" height="30" as="geometry" />
        </mxCell>
        <mxCell id="BoMmlxDTdHgLbSkk9d63-19" value="Private Datacenter (your local environment)" style="text;strokeColor=none;align=center;fillColor=none;html=1;verticalAlign=middle;whiteSpace=wrap;rounded=0;" vertex="1" parent="1">
          <mxGeometry x="500" y="320" width="260" height="30" as="geometry" />
        </mxCell>
        <mxCell id="BoMmlxDTdHgLbSkk9d63-20" value="" style="endArrow=classic;startArrow=classic;html=1;rounded=0;exitX=1;exitY=0.5;exitDx=0;exitDy=0;exitPerimeter=0;entryX=0;entryY=0.5;entryDx=0;entryDy=0;entryPerimeter=0;jumpSize=15;endSize=6;strokeWidth=3;" edge="1" parent="1" source="BoMmlxDTdHgLbSkk9d63-13" target="BoMmlxDTdHgLbSkk9d63-14">
          <mxGeometry width="50" height="50" relative="1" as="geometry">
            <mxPoint x="370" y="220" as="sourcePoint" />
            <mxPoint x="420" y="170" as="targetPoint" />
          </mxGeometry>
        </mxCell>
        <mxCell id="BoMmlxDTdHgLbSkk9d63-21" value="" style="image;aspect=fixed;html=1;points=[];align=center;fontSize=12;image=img/lib/azure2/databases/SQL_Database.svg;" vertex="1" parent="1">
          <mxGeometry x="620" y="137" width="48" height="64" as="geometry" />
        </mxCell>
        <mxCell id="BoMmlxDTdHgLbSkk9d63-23" value="" style="shape=image;aspect=fixed;image=data:image/png,iVBORw0KGgoAAAANSUhEUgAAAlYAAAHnCAYAAAB62xNSAAAACXBIWXMAAA3VAAAN1QE91ljxAAAAGXRFWHRTb2Z0d2FyZQB3d3cuaW5rc2NhcGUub3Jnm+48GgAAIABJREFUeJzs3Xd8lFXWwPHfMyUz6SG9QGgJIQkJgdB7kdCLWBDBuuo2V13bruu+r2Vtq+taWMvqFl/LqihNRUQUpPdeQw+EBNJ7ncy8f2QJTOaZZJLMTAKc7+fDZzf3PuUEZHK45VwQQgghhBBCCCGEEEIIIYQQQgghhBBCCCGEEEIIIYQQQgghhBBCCCGEEEIIIYQQQgghhBBCCCGEEEIIIYQQQgghhBBCCCGEEEIIIYQQQgghhBBCCCGEEEIIIYQQQgghhBBCCCGEEEIIIYQQQgghhBBCCCGEEEIIIYQQQgghhBBCCCGEEEIIIYQQQgghhBBCCCGEEEIIIYQQQgghhBBCCCGEEEIIIYQQQgghhBBCCCGEEEIIIYQQQgghhBBCCCGEEEIIIYQQQgghhBBCCCGEEEIIIYQQQgghhBBCCCGEEEIIIYQQQgghhBBCCCGEEEIIIYQQQgghhBBCCCGEEEIIIYQQQgghhBBCCCGEEEIIIYQQQgghhBBCCCGEEEIIIYQQQgghhBBCCCGEEEIIIYQQQgghhBBCCCGEEEIIIYQQQgghhBBCCCGEuyjtHYAQ4pqhAboC3S77FQUEXfbLCPgCukb3VgGVQBmQ/99fucA54PR/f50Esl0YvxBCNEsSKyGEK+iBfsBgIBnoCyQCXi5+bwGwD9gP7AE2A0cAi4vfK4QQgCRWQgjn0AFDgInASGAgrk+iHJUPbALWAt8BB9s3HCGEEEIIW77APGAhUEj9qNCV8CsDeJf6JLDxlKMQQgghhNsYgTnAYurXPLV3ktTWX7nA34ExyAi+EMIJ5INECOGIBOBe4DbqF5k7hZeXF8HBIQR0CiAgIAAvTy98fH3QKBqr62pra6msrKSsrIyCggIKCwspKMinurraWaEAHAf+CXwAnHfmg4UQ1w5JrIQQ9miAKcDDwNjWPkSn09G9ew969epFXFwc3bv3ICoqiqjOUfj5+bcpwNzcXM6dyyTrXBbHTxzn6NF0jqank5mZicXS6vXqJuAL4FVgZ5sCFEJccySxEkI05gHcQX1C1bulN/v5+TNgwAD69+9PSr/+9OnTB4PB4PQgm1JaUsLuPXvYs3sXO3fuZM+e3dTU1LTmUT8BLwMrnBqgEOKqJYmVEOIiHfVTff9LfY0ph8UnJDB61GhGjBxFSkoKWq3WFfG1WmVlJVu3bmHdunX8tGYN2dlZLX3EZup/X35wfnRCiKuJJFZCCIDZwEtArKM39O7dm0mTpzB58mSio7u6LjIns1gs7Nu3lxUrVrDyuxWcP9+i5VRrgUeQKUIhhB2SWAlxbYsH/gpMcuRib29vpk6dxs1z5pCY2Me1kbmB2Wxm65YtLFz4OT/8sAqTyeTIbRbgS+BR4IxLAxRCXHEksRLi2uQDPA/8Gmh23q5r127cceedzJp1PZ6eni4Prj3k5ubyn08+5rPPPqWoqMiRW8qA/wEWAHUuDU4IccWQxEqIa88k6gtkNjt/l9y3L/fd+3PGjhuHRqNp7vKrQlVVJYsXLeaf/3yfrCyH1mJtA+6h/hgdIcQ1ThIrIa4dvsAbwF3NXRifkMADDzzImDGtrrJwxautreXLL7/gvb+/68g6rFrgWeBFZPRKiGuaJFZCXBuGAB8DPZu6KDIykkcffZxJkyejKPLxAFBdXc3HH33Iu+++Q1lZWXOXb6R+Z+Up10cmhOiI5JNTiKubAvye+tEUu+fieXp6cu+993HX3T/DaDS6LbgrSX5+Hq+//hqLFy3CbDY3dWkJ9VXqF7onMiFERyKJlRBXL1/g38ANTV00cOAg/vTcc3Tt2s0tQV3pDh06yB//+CSHDx1q7tL3gPupnyYUQlwjJLES4urUG1gG9LJ3QUBAAE888QdmzJzlvqiuErW1tbz/3t959913qK1tMm9aB9wE5LgnMiFEe5PESoirz3BgKRBs74IhQ4fy0ksvExYW5r6orkLHjh3lsUcfIT09vanLTgFTgcPuiUoI0Z461rkTQoi2ug1YRP00oA29Xs9jj/2Op556Gh8fH/dGdhUKCgpi1vWzKSkp4cB+u9UWOgG3Ul+W4bS7YhNCtA9JrIS4ejwMvIOdReqhoaH8/b33mTx5iuz4cyKdTsfo0WPo2aMn69evszc16AnMBdKBZhdnCSGuXJJYCXF1+B/qz/pTzZhSBwzg3//+gJ49Y9wb1TUkNjaW8ePHs3nTJnuV27XUn8l4Ftjj1uCEEG4jiZUQV76XqE+sVM2cNYs33liAr6/q7KBwosDAIGbOmMn+/fvIzMxUu0QDzADyqZ8aFEJcZSSxEuLK9gzwpFqHoij8+v7f8MQTT6LVyl91dzEYDEyfPoP8/HwOHjygdokCTKZ+p+AOtwYnhHA5+bQV4sr1OPCcWodWq+WZZ/7EnXfdJeup2oFGo2HM2LGY6+rYsWO72iUXk6sMYK9bgxNCuJQkVkJcme6j/tw/G1qtlj+//AqzZl3v5pBEY4OHDMHT05PNmzepdSvAdOAAUopBiKuGJFZCXHkmUX/un6Zxh06n4/XX32TSpMnuj0qo6t+/P4FBQaxbt1at++KaqzXUL2oXQlzhJLES4sqSCKwAvBp3XBypkqSq40lKSiKgUyd7yZUemEV9pfx8twYmhHA6SayEuHKEAGsBm3LpGo2G5194kRkzZro/KuGQ5ORkPI1GNm1SnRb04tJIZJVbAxNCOJUkVkJcGXTUj2ikqHU++tjjzJ17q3sjEi3Wv38q1dXV7Nq1U607EEgGPgUsbg1MCOE0klgJcWV4CZiv1jF37q089NuH3RyOaK2hQ4dy+vRpjh07qtYdS/3U4Gr3RiWEcBbZhy1ExzcF+AaVv6+jRo3i7Xf+LnWqrjA1NTXc87O72b5dtUaohfrdgsvdG5UQwhkksRKiYwsB9gHhjTuioqL4ctESAgIC3B+VaLOioiJuunG2vQrtudRP+2a5NyohRFvZbNcWQnQYCvBPVJIqo9HImwv+JknVFSwgIIAFC97CaPRU6w4BPkGWawhxxZG/tEJ0XHdRX13dxrN/eo5Ro0a7ORzhbMEhIYSGhrL6xx/VursBhcAWtwYlhGgTSayE6JjCga8Am+GMtLSJ/PbhR9wfkXCJ+PgEzmRkcPRoulr3KGAhUODeqIQQrSVrrITomL4EbmjcGBYWxrKvvsHf378dQhKuUlFRwezrZ5GRcVqt+ydgHFKCQYgrgqyxEqLjmYxKUgXw/AsvSlJ1FfLy8uLFl16yt7tzDHC3eyMSQrSWTAUK0bHogMVAaOOOWbOu5667f+b+iIRbREREUFpWyp49e9S6h1O/kaHSvVEJIVpKEishOpYHgNsaN3bq1Im33n4HT0/VHWTiKjFgwAC+W/EdxcVFjbu8qF9vt8L9UQkhWkKmAoXoOAKA/1XreOzx3xEYGOjmcIS7GY2ePP30M/a6fwUkuTEcIUQr6No7ACFEg0eATo0bExISmTlzltNeYjabOX36NIcPHyI7q77+pI+vL5ERkfRPTcXHx8dp77paVVVVkpOTQ3V1NRERkU79PRsydChpaRP5/vuVjbu0wPPADKe9TAjhdLIrUIiOIRg4Cfhe3qgoCh99/B9SU1Pb/IKMjNN8+OH/8dWyZZSVlaleo9VqSUhI4Ja5tzJ9+gz0en2b33s1qKqqYv36dfywahXr16+jsLDQqt/Pz5/EPolMnz6DCRPS2pxonc/OZsqUSVRWqi6pGgOsbdMLhBAuI4mVEB3Dn1EpBnrdhAksWPBWmx5cXFzMs88+zXcrVmA2mx2+Lzw8nIcfeZTp06/dARKz2czSpUt44/XXyMnJcegeg8HAnXfexS9++SuMRmOr371gwZu8/dbf1LrWAVIdVogOShIrIdqfH3AGsKqjoNFoWLR4Kb179271g/fu3cOjjzxs7zw6h8yYOYtnnnnG3tErV60LFy5w/69/yYEDB1p1f5cuXfjTc88zePCQVt1fUVFB2oTx5Ofnq3WPQUathOiQJLESov09CrzSuHHq1Gn85dW/tvqhGzas55e/+Dkmk8mq3dfPjymTp5CUlERMbCw6nY78/AIOHtjPxk0b2bljh82zkvv25b33/nHN1NA6evQoP7/vHs6fP2/TFx4RwYDUAYSEhGA0GjmXlUX6kcOkp9tWTvfw8OD1N95k7NhxrYrjg3//mz//+UW1rpXApFY9VAjhUpJYCdG+dMAJIPryRkVRWPbV18TG9mrVQw8fOsRtt82jvLy8oc1o9OTBBx/i5jlz8PLysnvvgQMH+Otf/8LmTZus2u+48y5+//snWhXPleTIkSPcfvt8SktKrNpHjxnDr375a5KSk1EU24/OEydO8Nmn/+HTT/9DXV1dQ7ter+e1199g/PjrWhxLdXU1aRPG25uGHADsbPFDhRAuJXWshGhfs4D7GjeOGDGSO+9qXbHtoqIibpt/q9UC65iYWP717w8YN25cswvSQ0NDGxaub9+2DYvFwpAhQ3j++RfR6a7+jcQPPnA/GadPN3zt4+PDG28u4P77HyAsPFw1qQIIDAxk1KjRjBs3nh07d1BYUH+8n9lsZvXqHxk1ahQhITZ1X5t08fd748YNat1+wKIWPVAI4XKSWAnRvl4DYho3Pv30s3Tp0qVVD3zxhefZtm1rw9cREZF89PEnLXqeoigMGDCQrl27UlBQwLvvvnfNFCcdPXo0mzdtIi8vj6CgYP7vw48YMGCAw/cHh4QwadJkNm5Yb7U+KqVvv1atl+vduzeff/4ZVVVVjbviqK/GXtrihwohXEYSKyHaTzfgDRpNyfeMieHxx39nd2SkOSkp/Thz5gwnT57AYDDwfx9+THR0dPM3qujVK45Zs67Hw8OjVfdfiby8vJk6ZSrHjh3jhRdfalUy5OnpyYS0iaxYsQKDwYN3332PcePHtyoevV5PRXk5O3Zsb9ylBYqp3yUohOggZI2VEO3nWeB/Gjc+8cQfuP2OO9v88KVLl1BdXc2cObe0+VmiddLT0/H38yM8IqJNz7lw4QLjx42xWrv1X5lAd8Bkc5MQol1IYiVE+zkKxF7e4OHhwU9r19Opk00BdnGNe/CB36hVYweYgpwhKESHIWcFCtE++tMoqYL6gqCSVAk1c2+dZ69rvjvjEEI0TRIrIdrHHLXGqVOnuTsOcYUYPHgwnTt3VuuaRaOjkIQQ7efq3zstRMd0feMGX19fRowY6fIXW8wWCo+WUXaugoqcairzq9EZtXj46TF08iAkyR/v8NYfxXK1qy03UZheStn5Ksqzq6irNqP31uLhq8c3ypPgZH90ns7fF6QoCtOnz+Cdd95u3OVFfXL1kdNfKoRoMUmshHC/GFSmAceOG+/S3XelmZVk/HCBrE15VBXUNHmtT6QnkcODiZkWgc5bPiawQPaOAjJ/yuXCrkLMtfbPXFS0CkG9/eg2KZzIIUFOXck6fcZMtcQKJLESosOQT0wh3E/1KJKxY8e65GW1FSbSF2Zy6tssLA6ewVyWVcnRL85y6ttsYq+Pose0SDS6a3OvS0lGBfveP0HBEcfKRVnqLOQdLCbvYDH+PbxJnN+N4GTnHAXUvXt3EhISOXToYOOuNMAI2BS7EkK4l9SxEsL9nqLRiJVWq+WZZ57FYDA49UVFJ8vY+OR+cvcVg6Xl95trzeTuKyb/YDFhqZ3QGa+tj4xjSzLZ+dd0KnObHuGzp7qwlrPrcgEIivdrdW2yy+Xn5VkVgP0vD2ALcKzNLxBCtIksXhfCvbTAiMaNKSkp+Pr5OfVFefuK2fTUQaoKa9v8rPzDpaz93X5Kz1Y4IbIrgAUOfHCaw5+ccXiUr6lnpS88y45X0rHUtSK7bWTcOLuFRqe2+eFCiDaTxEoI9+pD/RlvVoYOHebUlxQeLWXLC4cwVdoUlLRRaiqiylzZ7HVVedVseeEw1cWtG725khz88BQnv8lq9ro6i4lSUzEmSy1aDy3BMQGExQdh8LFdK5e9vYC9fz/Z5th6x8cTGRmp1jWuzQ8XQrSZrLESwr2GqzWmpjp+Fl1zakpMbP/rUcymy0ZHFEiY3IO+N/UiLCEQtHDy2Ek+/ORD3njzdSoqKtBrPIjxTqBfwFCS/QehqKy6rsytZvvLRxn2dAIa/dX577Lz2ws48U223f7c6vNsK/yJgyW7KKjJxT/An2eeeYa77pyDr1991QNznYWT6zNZ+9pO8k8WN9x7ZvUFfCKNxMyKalOMQ4cNZ9GXXzRujgM6U1+NXQjRTq7N1ahCtJ8Pgdsub9BqtWzdtgNvb2+nvGDbK0c4v7Wg4WudQcuMV0YTM1b9EOZDhw4xdepUTp8+3dAWYezCLZ1/TrhRtW4SCbd1JWZm25KDjqi6qIbVD+2htsz2hJg6i4mVFxaxIf976iz1I4GRkZGsXr2auLg41efVVJhY8uBqMrZcStQ0eg1jX0/BO6z1JS2+/vorHn/sUbWu25HdgUK0q6vzn5xCdFwpjRtie/VyWlJVdKLcKqkCSPvfoXaTKoCEhAS++eYbPD09G9qyq87y1snnSC/br3rP0cXnqCm5+o6nO77snGpSVWOu5oOM11mbt6IhqVIUhc8++8xuUgXg4aVj1mtj8An1amgz15o59FFGm+IcMmSovS7VEVEhhPtIYiWE+3gAvRs3JsQnOO0Fx748a/V1ZHIIfWb0bPa+xMRE7r//fqu2GnMVn5x5i+yqszbXm8pNHP/qXNuCbYbJVEtpSTFFRYUUFRVSWlqKpc0rye2rKTWRseqCat8X5/7B0bIDVm1Tp05l5MjmC7oafDwYem+yVVv2lnxKTpW3OtaQkBC6du2m1jWw1Q8VQjiFrLESwn0SAH3jxqZGPFqiqrCW7B3Wo1WJDiRVF91555288sorVm3V5ioWZr7PAzHP2Ky5Orcxj4R5Xdu8oMBkquXs2TOcO3eWvNwccnNzKC0tobbWdjejoih4e3vj5xdAWFgEYWHhdInuRmBgYNuCAM7+lIupyjZx21m0gX3F223aZ8+e7fCz4yZ2ZdXzW6zaMjfmkdC99SOVSUlJZGSctmkGPIHmdyMIIVxCEish3Ed1aKpXnM0gVqvk7i2yqVUVFu94whEfH4+npyeVldY/k7OqzrCnaDP9Aqx3LlbmVlN4ooxOMT4tjrWmpob09EMcPLifzLMZ1NU1v3sRwGKxUFZWRllZGVlZl9Zod+oUSM+YXiT16UtoWHiL4wHI3Vdk02a2mPkx52vV61uSEHt1MuIVaKSi4FL9zuzN+STM79ryQP8rKSmJb76xiU0PJAM2ha6EEO4hiZUQ7tNdrbFHjx5OeXieSmKgNzr+V/ziaFDjxApgZ9FGm8QK6pO5liRWhYUFbN+2hf3792Aytb2+1uXP3bF9Czu2byEsLIKBg4YQH98Hjcax1Q5mk4X8Q8U27cfLD5Ffoz496OizL2pcHLT8QhUVOdV4hbauKGxinyR7XUlIYiVEu5HESgj36da4wWAwEBIS4pSHl5yxLd6Zcy6PkF6dHLq/vLycwsJC1b4T5UeoNldh0FjvZKvIqXbo2WVlZaz96QcOHdqP2ey6dVIAFy5k883XS9i0cS0jR42jd+/EZu8pz66krto2ruNlh+zec+zYMYYMGeJQTKXFpVQU2p42U3G+qtWJVa9Ym+MmL3LOEKgQolVk8boQ7tOtcUNUVJRTjjkBqCm1HQHavmanw/evXr3a7pSc2VJHQU2uTXtFTtNH01ksFrZv28L77y3gwIG9Lk+qLldQUMCypV+y8POPKSoqaPLamjL17/tCtf2SUIsXL3Y4lpXffo/FbFt1vexC64/28/XzIzhYNSmXxEqIdiQjVkK4j03hp8hI59WCqi23LRPw3Wc/MvnXYwkLC2vyXovFwssvv9zkNSWmIiKwLttQU2J/Oq+0pJjly5eRkXGqyedeztvbm6iozkRGRuHv74+3tw96ff16/5qaGgoLCygsLOTs2QzOnz/vUKJ26tQJ/vXPvzNx0lQSE5NVr6mrVC8dUVVnP/H56quv2LZtG4MGDWry/VVVVbzwwvPcwoM2fbWlbStZERPTk7w8m4Q3vk0PFUK0iSRWQrhPcOOGoOAg5z1dZeTLVFHH/PnzWb58OR4etsesXPTCCy+wYcOGJh/feBoQQOel/hGSlZXJoi8/o6Ki+ZICPXr0ZODAwSQm9qFz5y4Oj+BVV1dx6NBB9u3by/bt2ygvL7N7bW1tDd98vYRzmWe5bsJkm/VRFjtH+Ok09j8izWYzN998M+vWrSM6Olr1GpPJxD333MPJ9NP1ddEbP9+zbYdad+vWnS1btjRu7kL9bIT7hgeFEA0ksRLCPTSAzRa9Tp0cW//kCM9gg80hyQH6IBb98G+uu+46/vnPfxLbaF1OWVkZTz75JG+++Wazz/fTBdi0GXxsP0KOHU3n668XqZZLuMjDw4Phw0eRljaR8PCIZt+txmAw0q9fKv36pTJv3m3s3LmDFSuWq5UgaLB79w7KysqYPmN2w0gYYHedUye9TS5sJSMjg4EDB/Lqq68yd+5ctNpLidLu3bt56KGHWLduHZ09VfctoPdtW2IVoX5moB4IA+yfyyOEcBlJrIRwjwDA5qdoQIDzEiuvUNvEqotnd7SKlvXr15OYmMi4ceMYNGgQHh4eHD16lK+//pqiItvdhDZx6gMJ9LBdz2MIsh4FO348naVLF9qdolMUhZEjR3PDDTfh5+ffgu+uaTqdnsGDhzJo0BB2797FZ599Qm5ujuq1x44dYemShdxw49yGkSuvMEN9Pa5GI1ddvWLYXriuyXfn5ORw22238cADD9C/f3+8vb05cuQIR48ebbimh7d6aQavoNYtXL8o3P4Ub2cksRKiXUhiJYR7+Kk2+vo67QX+3b25sNN6V5+n1psYn0TSS/dRW1vLypUrWblyZYufnejXX7U9OPFScnT27GmWLvnCblIVGhrGvff+gpgYu7vZ2kxRFPr3T6VPnySWLFnEypXfYlGZ5zt58jjfLl/G1GmzUBQFrYcW73BPyrOtS00k+qWyJOtD6izNr4UqLCzkxx9/VO1L9Eu1adN6aAloRQ2wy4WF263ZFQXYVjUVQric7AoUwj1UFzg1te6ppSIHq6/Xui5kpk3V9JbQKlpGBk2yaVc0CiFJ9YlVaWkJS5cssrurcMCAgTzzzPMOJVVlZWV8+eWX3HbbbfTt25egoCDi4uKYMWMG7777LpmZ9nfqXeTh4cGcOXN56KFH8PLyUr3m4MF9bNu2ueHryCG2xVS9tN4MCRzT7Pua0tUrhm5ett93YLwvGn3bPoLt7AoElWlnIYR7SGIlhHuozvlcvs6nrfy6e+MdbrvAPNqrJ/0C7B7a26xxITPo5GG71igo0Q+9jw6z2cyypV9SUaG+eDwtbTK/+tUDGI22sV20fPly7r//foYPH05ISAg33XQTH3/8Mfv27aOgoKBh2vKXv/wl0dHR9O7dmxtvvJEFCxY0uZYrOTmF3//+j3anXNet/bGhgnvkUPX1VNeFzsJXZX2ZI3SKnusj71DtixzS9o0Lfn6qA6EAzptjFkK0iCRWQriH6tCUXu+8ESuAHlPVF4LPjryTLp4tr/Ae75vC+NAZqn2xszsDsGvnNs6dsz2oGWDChInMnTuvyZ1+f/zjH5k2bRpvvfUWmzZtoqqq+dpY6enpLFq0iAceeIC0tLQmk6suXaJ54ok/qq7pMpvNrPh2GWazGf8e3gTG2SYqXlof7ur6EB6alq2HUlC4PvIOIoxdbPqMgR50GdP2wrBNJFbOW8AmhGgRSayEcA/V7V8arXP/CnZLC8cnwnZkSK/x4J7ujxHvm+LwswZ2Gslt0b9RnUYMivclJMmfsrJS1q1bo37/wMHMnTu/yXfs2LGDF154wW6/j48PXbt2bfKQ5Z9++ol33323yfeEhobxwAO/RaezXVaal5fHjh31J8Ak3tlN9VDpKM9u/Lz77wnQOzbKpNd4MLfLLxjQaYRqf8zMqDZPA0J95X6DQTXha90QmxCizWTxuhDuoTpk46yq6w3P0yok3tmdrS8dttnhZtR4ckfXB9lTtIVVOUvIr1HfNRdpjGZS2I3E+aoX09R6aEm+rycAW7dspLa2xuaa8PAIfvaze5v9/v71r39ZLS738vIiMDCQbt260bt3b6vK9AUFBaSnp3Py5EkKCgrIz89vuO8f//gHv/nNb5p8V8+eMdx00y18+unHNn2bN60nJSWVTrE+dBkdwtmfbKvMd/bszkMxz/JT3rdsyv+BGrPtcT5aRUcfv1Qmh99MJztJWGCcH90nt67EhBpPT0+qq21i8XbaC4QQLSKJlRBXmbDUTsTd1IX0hbbTcwoK/QKGkhIwhOyqM5wsT6fcVIoFC530wXTz7kWYQbU2UoOke7vj28WLiooy9u7dZfsOReHuu+/BYLC/puqiy3fRGY1GHn74YdVRJYDAwECGDh3K0KH168U+/PBDTp48CcD+/fvJyckhNDS0yfdNmDCR7du3cvz4Mav2qqpK9u3dyYCBQ0m+tyclGZUUn7JdM+ap9WZy2E1cFzKTk+VHyK46S0VdOQatkWCPMGJ9+uCltZ/T6L11pD4Ug+LEgUqjpyfYlszwdN4bhBAtIYmVEFehuJu6UJZVybkNear9CgqRxq5EGru26Lkxs6KIHlufvOzft1d1bdOwYcOJjVWv23S57Oxsq1pP0dHRdpMqNT169GhIrCwWC2vWrGHOnDlN3qMoCvPm3c6zz/6vTRmGnTu3kzpgCFqDhsFP9Gb9E/uozLcdjYP6qb4432S7o3pqdF5aBj4eh2dI8wlnSxjVpwLVt0IKIVxO1lgJ0Y6cPRV46cHQ/4FYYmY56SxCBRLmdyVh/qVEbP+BvTaXaTQapk+f5dAjGx+h061btxaF1KOH9WL89evXO3Rft27dSUqyTYiKigo5f76+pqYx0IORLyYT0KttdaYu8vDVMfR/EqzqfjmL0VN1cEpGrIRoJ5JYCeEeLsqgmnhAjJ7VAAAgAElEQVShRiFhflf63R+L3rv1g9NeoQYG/z7eKkkrKMgn3/bwX5KSkgkLs1u00sqFCxesvq6oqLBzpbrCQutiqLm5tvHYM358mmp7evqhhv9vDPRg+NN9iL4uFEXT+j++sNROjH45mU6xzisGezmj+pSrjFgJ0U5kKlCIK5DBwwOD0YBWqwELmOrqqKmuobrGduqqy5gQwgd24vjSLE4uz6auRr2IZ2Mevjq6T44gZlYUWg/rf4OdOXNa9Z5hw0Y6/D307dvX6usNGzZgMplIS0uzOSS5sZ07d7J8+XKrtsGDBzv87sTEPnh7+9gc3Hz2TIbV11oPDSm/iKH7pAjSPzvL+R0FDr/Dr6sXcbdEEzGw6VqdHh56jAZD/TmDCtSZ6qiuqaG6Wn0asjGjp2piJSNWQrQTSayEuIJ4eOgJ8PdTX4vk401tbS0lJWU2CZbeW0f8vGhiZ0WSs6eY87sKKThUTHWxqSHR0nlq8Q4z4tvVm6hhQYSmBKBo1UdqMjNVFsYrComJfRz+XkaOHMl9993He++919C2ZcsWLly4wA033ICPj+00nMlk4rvvvmPHjh1W7SNGjGh2V+DltFotiYl92LZti1V7Ts556urqrA5TBvDv5s2g3/emLLuKnJ0F5OwpovhUOTWltVj+e4KPIcAD7wgjgXG+dB4Vgl9004NGer2OAH8/1SKxPnhjMpkoLi5VTZYvJyNWQnQsklgJcYUwGg10CvBvcl2WXq8nMDCA4pJSKioqbfp13joihwcROfxSKYC6mjrMtZYWTRcWFuTbtHXu3AVv75bt8l+wYAHnz5/nq6++amg7deoU77zzDtOmTSM+Pr6h/cKFCyxevNhmCjElJYVFixa1uIp9jx49bRIrk8lEUWEBQXaOivGJMOIzLZIe0y7tnDRV1KFoFbQGx1dWOPJnqdPpCArqRHFxCeUqf5YXecoaKyE6FFljJUQ7cvQMP71e3+wP4oZnKgr+fr4YHDyHUOuhbfEarOLiQpu28PCW12by8PBg8eLF3H///Vbt5eXlfP755yxevJiKigo2btzI+++/b5NUpaWlsXbt2mbLLKixF29ZmfrRPPbovLQtSqpa8mcJ4O/vh9Fov+q7nQKhMmIlRDuRxEoI92jT4vUAf78W7SBUFAX/Ft7TEmqjYZ06te7cX61Wy4IFC/joo49sRrz27dvHq6++yqpVqzCZTA3tGo2GP/zhD3z77bdNHevSpIAA9eLkZeWlrXqew+/1923xn0v9n796n50RK0mshGgnklgJ0cEZjQb0+pbP2ut02iZHOlrLYrFgubiw6DJtPVB6/vz57N+/n9GjR1u119VZL7aPjo5m1apVPP/88zZroVrCbs2sRvWtnMnDQ9+q3yeNRmMvgbJ3uLVMBQrRTiSxEqKDs1MA0uX32tO4sGZz7S3RvXt3fvzxR15++WXVxGf+/Pns3buXcePGtfldl4+AXU6rdd3S07b8eXiqJ1D2Eistdg7+FkK4liRWQrQjR6aEWjNadeneto0iqdFoNBiNtgMiJSXFzd779ddfk5aWxnPPPcf69evVzrhDq9Xy2GOP8eCDD1q1x8XF8dFHH6lO4dXV1fHDDz/w5JNPMnz4cB566KFmYykuVo9Xr3ddPuLh0fo/D51OfXTOToFQkOlAIdqF7AoUwj1Uf6I6coRLW9ZJabWu+beTj483VVXW66wKVHYKNrZr1y5WrVrFqlWrAFi7di2jRo1SvbbxSIxa+YWLLBYL06ZNa0jUPBxYuJ+bq34Itb21V86gtOGQQHvTnk2MgnkCNocICiFcS0ashHAP1QxKa2cU4nJtmWIzu2i9kL+/7UL1U6dONRvroUOHrL5OSEiwe23j3XlNVWbX6XTExsY2fL1v374m4wA4ceK4TZuiKPj5uy6xatOfpVn93iZGrFpW+0II4RSSWAnhHnZGrJqfGjKZHKuUrnpvrfo6oraKjLQ9g7CysoKMjNNN3nf5ocshISEEBwfbvbYliRVAYmJiw/8vKCho8ogbi8XC4cMHbdpDQkJdMn16kb11XW25196idsA5Bx0KIVpEEish3EP1p7XeganAyqqqVr/U0WNRWioqqrNq+44d25q87/Tp0w3/v3v37navM5lMnDhxwqqtoKCA8+fP272n8fNOnTpl99ojRw5TVGQ7SxYYGExlpf1inG1VWWW7psxRauvRgKaKsrrmcEIhRJMksRLCPdRHrBxYmF5dXWNTcsARFoulxQcbO6KkpIiy8rJG68Pqp6k2blyPyVSrel9paalVMrN3716riusXY/7222/p378/P/30k8398fHxvPLKK5SUlFj17d69mw8++MCq7dy5c3a/h7Vr16i2HzlykDffeJm33/orXyz8hJ9++oEjRw5SWemc38eamppWjVpZLBYq7CR8Taw9a12BLyFEm8jidSHco9WL1y0WC8UlpQR2atnan+KSUqessSotLeHkieOcPZvB2bMZdnb/1S+wLyoqYuPGDYwePdbmCl9fX+bNm8cnn3wC1I/AzJo1i4kTJ9K3b1/y8vJYu3Ytx4/brn26qKioiMcff5xnn32WESNGEB0dTVZWFitXrqS29lJCl5KSwpQpU1SfkZWVxfbtW5v5nkspLS3l5Mn6WBRFISQ0jG5du9O9RwzR0d2aPShajcVioai4lOCgTi26r7SsnLo629ph0GRiJSNWQrQD15RlFkI0Ng/4uHHj0mVfExcX59ADfHy88fN1bNlMeXkFxSWtryBeWlJM+tEjpB85yLlzmS1adO3v78+LL/5Fde1PSUkJAwcOtFpr1ZwZM2awZs0aSksd+34CAgLYtGmT1TmDl3vttb+wb98eh9+vxmj0pGdML5L6JBPdtXuLd256e3ni7+/YgFJFRSVFxSV2+zMyTjNpYppa18+B99Q6hBCuIyNWQrhHq0esLiorK8dkMhHg72d3tMRisVBSWkZ5ecunriwWM0ePprN71zbOnMlo9Q624uJivvjic26//U6bPj8/P9auXcv06dPZsWNHk89JSkrijTfeYOzYsWRmZvLYY4+xcOFCzGb1kRuArl27smzZMrtJ1ebNG1WTKq1Wy7hxE6iqqiYvL4ecnAsUFhbYfVdVVSUHD+zl4IG9BAYGkZo6mKTkvg7XwCqvqKTObMbfz9duGQWLBUrLyigrK2/yWTIVKETHIiNWQrjHPcD7jRtXfr+K6OiuLXqQoih4ehoxGgxotVoUBerqzFRX11BZVWl3ysie6qoqdu7axp7dOykttT8yAvU/xLt06UrnLl2JjOxMaWkJixd9pnrt3Xffy8iRo1X7TCYTf//733n33Xc5cOBAQ3tYWBjDhw/nnnvuYdKkSTYjQSdOnODdd99l9erV7N+/v2H6Ly4ujttvv50HH3zQ7mLurKwsnnrqD5etcbJw8SNw8OBhjBk7wSbG3JwLZGSc4nTGKbLOnbWabmzMYDCS3DeFQYOGN1lz63KKUr+rz/bPsprKqmqH1tZVVVXRLyVZretZ4CmHAhFCOI0kVkK4xy+Btxs3/rh6jWrpAneorq5ix/YtbN+xlWo7Ow8VRSEqqjNxcfH0jOlFp05BNtcsXbKQ9PTDNu06nZ4nnvgjPXr0bDKOoqIi8vLy8PLyIjIysgXxV1NUVIS3t3eziUxxcTEvvPAsOTkXLmutT6wMBg/m3HIHERFNv9tkMnHmzGkOH97PsaPpdnfp6XR6UgcMYvDg4U2VQnCqpD4JaoviXwMedksAQogGklgJ4R4PAG80bly7bgOhoaFuDcRsNrN9+xa2bN5gUz39ouDgUFL6pRIXF4+Pj/010BfOZ7N58wbS0w+p9vv4+PDII7+jWzf7pRVcrbi4mFdeeZFz5zKbvC4oOISkPsn0SerXVAkD4GI5iKPs2b2TjAz1wqgGg5EhQ4YzcNDQNh0W7YjBgwaqbSr4J/UjpUIIN5LESgj3eAT4S+PGjZu2EBhoW8XcVTIyTvPDquXk5eXZ9Gk0Gnr1iqd/6gC6dOlm9xkWi4UTJ46yY8c2Mk6fbPadRqORX/3qAZKSVKerXOrcuUxee+0v5Ofbfr/2aLVaesf3YfjwkaojdI3l5+WyY8dWDhzYp1pqIigomAlpU+natVtLQm+R8ePGkJWV1bj5C+Bml71UCKFKEish3OMJ4IXGjVu3bcfPz9/lL6+qqmTV9ys4dGi/TZ+iaOjTJ5lhw0cRENB0GYATJ46zZvXKFiUq9e9QmDZtBjNnznb56M1Fa9eu4dNPP7Y7ZWcwGDGZau2uY1IUhbi4BEaOGktgYPMJVnl5GZs3rWfPnp2qz0xMTGbChMkYGp2B6AwzZ0xT22m5Epjk9JcJIZokiZUQ7vEC9cmVlf0HDrVoZ2BrnDp1ghXfLrMpV6AoCvHxfRg5agwBAU2PmhUUFLB69XecOH5Mtd/Ly5vk5BRyc3M5ccJ+KYXOnbtw++13EhvrWImJ1sjKyuLTTz/iwAHbJPKikJBQbp13JwoKR44c4sDBvZzLPKs6pacoGlJS+jN6zHgMhuaTopKSItavX8PBA/ttnufr58/UKTPp6uSp0Vvn3sLu3bsaN28Chjv1RUKIZkliJYR7LADuv7zBYDCwZ6/9H/5tVVdXx5rV37Nr13abH/AhIaGkpU2lc5foJp9hNptZv24N27dvVh2FCQ0NIzV1EAmJyeh0OsxmM199tYj0I+prri7q2zeF6dNn0bNnTMu/MTuys7P49ttv2Lx5Y5O76by8vLjt9p/ZJJNFRUUcOLCXXTu3qh5r4+PjS1raVGJ7OZYUZmaeYdX33zZaMF8/5XrPvb9yaJrRUffdew/r169r3LwfcP/8qxDXOEmshHCPD4A7Lm8IDAxk46YtLnlZWVkpS5d8wblzZ63adTodI0eNY+DAwShK05XDi4oK+fqrRWRl2R4NEx4eyZgx19mMvGRnZ7FixVfkNkom7ImO7sqIEaNISelPSEiIQ/dcrqSkhL17d7Np0wbS0484XHvL29uH0WPG06dPX5uSDjU1NezcuY3t2zapJlhxcQmkTZyCl1fTC9yhvjbYtq2bWb9+TUOyN3ToCEaNHu9QnI56+LcPsWLFt42bzwJNZ85CCKeTxEoI91gEzL68ITo6mpXf/+D0FxUU5POfTz6gvLzMqj0sLILp068nKLj5BObo0cOs+PZrm12Dnp6eDBs+mv79B1oVKbVYzKxbt4atWzZhsVyqo6XRaDGbHTvnMDw8gp49e9K1a3dCQkIICOhktTuvoqKCkpIScnIukJl5lhMnjpNpZ/rOlsLF8wwv161bD6ZOu161XENNTQ3btm1my+b1NiNgvn7+zJp1k8OlMvLycvjm66VotVrmzb+rVcfhNOWZp5/is88+bdxcCXg59UVCiGZJYiWEe6wCrru8oXd8PEuWLHP6i8xmMwsXftKwY09RFAYNHsaoUeOa/YFusVhY+9MPbN26yapdURT69x/IyFHjMBgMVn1VVZUsXfoFGadP2TyvR49YqqurbEbO3MnX15eRo+qrtx/Yv8emmrqPjw9Tp11Pt249VO8vKirguxXfkJFh/f1ptVrGjJ3AgAGDHYqjrq6OmppqPD2dn+u8+eYbvPP2W2pdPkDTpduFEE7lnu05QohfA50vb+jarRuzZ9/g9BcpikJsbG+OHz9KbW0t02fMZsCAwc2eZ1dXV8fyb5ayZ89Oq3ZPTy9mzrqRAQOG2Cy0z8vL4bNPP+L8+Wyr9oCAQGbOupHhw0eRlJyCj68v2Vnnmqxc7mw6nY7Bg4cxc9ZNRER0JjY2jt69EyksLKSoqKDhupqaGg4d3I/ZbCY6upvN75PR6Elin2S8vLw5c+Z0Q2JmsVg4dfI45WVl9OgR0+zvr0ajQa9XPdmozY4dO8b6dTZrrAD+ARS55KVCCFWSWAnhHn8ArGoZJCYmMmXKVJe8TKfT0aNHT5KS+zt0ZE51VRWLFn3G8ePpVu3R0d2Yc8tthIfbViXPOH2KhZ9/TFmZ9ZRj//4DmX3DHAIDg4H6RC88PJL+/QdgMHqSm3vBpQmWXq+nf+ogZsyYTa+4eKvyDl5eXiT2SSbAP5DTp09aTVOePZtBcUkhsbFxNkmSoihEREYRE9OLjNMnraZIz5/PJjfnAjGxcW4rJdFY5tlMvv9+pVrXfwDbRXJCCJeRxEoI93gOsDqhd8CAgYwdO85lLzQaPfHyan7aqbq6moULPyYz84xVe1JSCrOuvwmjSt2lrKxMvlj4H2pqahratFotk6fMYOiwkWg0th8tWq2Wzp27kDpgMCGhodTW1FBUVITa2qfWiIrqwpChI5gydSa9evVusjRCaFgYcb0TOHfuLOWXJYY5ORfIyb1Ar169VadNvb196JOUQkFhnlUtr4KCfM6dO0uvXvEuL5+hJj8/n2XLlqp1LQPUa2QIIVxCEishXM8TeKZx44gRIxkydGg7hHNJbW0tX37xqc0aqMFDRjAhbbLq9FZOzgU+/+xjamouFd708fHh5jnziYnp1ew7NRoNwcGhJCYmM2DgYMIjov6bvClUVlY4tBhdUTQEBgbSo0csAwcNYcKEyQwcNJSIiCh0Osem2zw9vUhK6ktJabFVSYSC/HxycnLo3TtB9fvX6XT07p1ITW01WZcdk1NcXETGmVPEx/dx+8hVeUWF2uJ1qF/bt8etwQhxjXP/P62EuPaoHgYYGOS8OkatUVdnYsnizzl79nRDm6IoTJo0jeS+/VXvKSoq4PPPPrKaCvPz82fe/LtaVUHeYDASFxdPXFw8UL/wvqioiPKyUkpKi62mDD08PPDyqj9wuVOnIKckL1qtjilTZuHp6cX2bZdKXxw/ns7qH1dy3YTJqvcpisK4cRPx9vJm7drVDclgdtY5Fn7+MXNuuc1l66nUBAfb/W+ps70OIYRrSGIlhOupJlZB7ZhYWSwWVnz7NadOnWhoUxSFtIlT7SZVdXUmli75koqKS5vMvL29uXnOfKcdy6PR1I9EufP8xItJkoeHgY0b1ja079y5jcCgYPr3H2j33sFDRuBhMLLq+28bkqtz586yZPFCbrhxDlqtez5iAwODMBgMasf3dHFLAEKIBs4tpiKEUBOm1hjYyX3JQ2MbN67j4MF9Vm1jxl5HSkqq3Xt+/OF7Lly4tPvP09OTW+beTlBQsMvidKcRI8YwYOAQq7YfVn3H6WYOmu7XbwBpE6daTRueOnWcb75e6nDB0rZSFIWwsHC1LikQKoSbSWIlhOupHgwXHhHh7jgAOHzoAJs2rrVqGzlyLIMGDbN7z5EjB9m9e3vD14qiMH3GDQQHqw7GXbHGjUuzOsfQYjGz/JslqhXYL5eSksq48ROt2o4cOcjatT+6JE41Eer/PUliJYSbSWIlhOvZJFaKohAZaVvCwNUunM/m22+XWY2kJPbpy7Dho+zeU1VVyfcrrY9LGTp0BN2793RZnO1FURSmTZ9NaOilQcaysjJWfb+82XsHDBjMiBGjrdq2btloUxfMVSSxEqJjkMRKCNezSaxCQkJsKpi7Wk1NDV99tQiTydTQ1rlzFyZPntbkfWvWrKKysqLh68jIzgwfMcZVYbY7Dw8Pps+40apswuHDBzl8+ECz9w4fMcZmjdq5TPdUnY9QT9R9gPabcxbiGiSJlRCuZ5NYde7s3s1aFouF5cuXUFCQ39Dm5+fP9bObXmB9/nw2+/dd2q2v1WqZOu16p59119EEBwczerR1jbEfVn1HdVVVs/dOnDiV7t17oigKw0eMYcrUma4K00qU/RHQ5mtgCCGc5ur+dBSiY7BJrKKi3JtYVVVVUpB/6RgXrVbLzFk34uXlbfcei8XC9yu/sZo2HDJ0pFt37LWn1AFDiI7u1vB1RUU5GzettX/Df2k0GmbOuombbp7HiBGjmz3qxlm697A7NRvvlgCEEIAkVkK4WhfAr3Fj5y7u3QXv6enFHXfe23Bg8JixE4iMbDq5O3HiKNnZWQ1fd+oUyJAhw10aZ0eiKAqTp0y3qpe1c8c2q1E/ewwGg9vXoPXsKYmVEB2BJFZCuFaKWmOvXu6fndHpdIy/bhLz5t9NauqgJq+1WCxWNZ0ARo+5rl2Oa2lPAQGB9LusjpXZbOanNT+0Y0T2+fv726uN1tvdsQhxLZPESgjXUk2s4uPbbxChc+cuzU5PnTx5jPPnL9WsCg4OpVeva/Pn84jho62mTI8dO2L1e9OR9FCfDpQRKyHcSBIrIVwruXGDl5cXXbp07F3wW7dusvp6xMgxblsr1NEYjEaGDh1h1bbJgbVW7SEmJkatuQcq09FCCNeQxEoI17IZserVK65D76rLzc3h7JmMhq+DgkOu2dGqi/qmpOLt7dPw9fFjR60Obu4o4nqr/jlpgKbnfoUQTtNxP92FuPKFATZzM/EJCe0QiuN27dxm9XVq6iC3jlZpFAWtRoNWq0Wn06HX1//SarVotVo0GvePnOn1egYPvrRw32KxsHXLRrfH0ZyUlH72uoa6Mw4hrmXX1kpUIdzrOsAmC0hOtpkd7DCqq6uszhA0GIz06ePceBVF+W/SpEWv16PTaRsSKY1G41ASZ7FYMJvNmM1m6urM1JpM1JnqqDXVYjLVueSMvn79U9myZUPDIdRHjhxkzNgJ+Pr62r2nrq6OoqIiioqKqKqqpLSk1CY2b29vDEYj/v7+BAQEYDQaWx1jTEwM3t7elJeXN+4aona9EML5JLESwnWuU2scMqTjDh4cOXyI2trahq+Tkvqi13u06ZmKAnq9Bx56HQajAQ+9vs0jYBeTM61Wi14PRqyr2NeaTNTW1FJVXU1NTS1ms7lN7wPQ6fSk9Etl08Z1QP0OwV27tjFo0DCOHz/O0aPpnDh+nLOZZ8nOyiY7O4uCgoJmnmrLaDQS1bkzkRGRREZG0qNHD2JjexHbK5bg4JAm79VqtSQlJ7Nl8+bGXUOoT/Ldcyq0ENcwSayEcJ3xjRsiIyPZs2c3dXV1lJeXU1NTA9Qfo+Lt7Y1Wq8XPz4+goGAiIsLx8/N3a8AHDu61+jop2e7UUpM0Gg1GgwGj0YDB4OH2he96nQ69ToeXlydQn2hVVVVTVVlF7WVH+rRUv34D+fGHlWRmZpGXl8/336/hwoUL1NXVOSt0qqqqOHH8OCeOH7fpCw0NpW/fFFL69SM1NZU+fZKs6mwBpPRNUUusAoG+wJ7GHUII55LESgjnigb6A2nUFwe1kpWVxW8fetDhh3l6ehIZFUWXzl1ISEwkISGBxIREwtUP3G2T4uIiq3PtwsIjrA4jbo6iKHgaDXh6emIwtG2Uy9n0Oh16Hx2+Pt7U1pqorKykorLKoZEsk8nEli2b+WnNGjZu3MDp06ddH7AdOTk5rFr1PatWfQ/UH0s0dOhQRo4axfjx1xEQEED/1FR7t89AEishXO7a3D8thPOEAZOAycA4oOm5GicJCgpi8JAhjB41mhEjRznlmJnS0hJ27tjK4cMHKSkpZvz4NAYMbH7aUqfT4e3tiaenJ5orqCSDxWKhqrqaivJKqv87cniR2Wxm06aNLP/mG1avXk1JSXE7Rek4rVbLoMGDSUubyCsv/5mKiorGl+wABqrcKoRwoivnU1CIjiMSuAOYTf3oVLvurtVoNPTp04e0tInMnDWr2XU4zbFYLJw7d5agoBA8PT3tXqfT6fDx8cbLs/WLrTuKmpoaysorOH3qNF8u+pLFixZZHedzpdFqtWrTkxagM3DlfmNCXAEksRLCMVpgLHAfMAvQt2846i6OWtx88xyuu26CS46g0et1+Pn6YDAYmr/4CrF9+3befvttvvrqK0xtWIMFEBISQpcuXYiIiCQsLIzAoCACAgLw8fHBz9e2TmdlVSVlZWUNuwdzLlwgKzuL7KwsMjMz2xxPI78G3nbmA4UQ1iSxEqJpBuAe4PfU/2v/ihEREcl9P/85N9xwI3p92/NAjUaDr483Xl6eV00V9g0bNvDiiy+yYcOGFt+rKArdu3enb98Ukvv2JTa2F71iY/H1c16R89raWk6dOsXxY8c4cGA/e/fu4eDBg1RXV7f2keeor63W6gcIIZp2dXw6CuF8Ri4lVFGteYC/vz/xCQlERUYRERFBZFQUYWFh+Pv7o9Pp8fLyahj1qa6upqKiApOpluLiYs6fP092VhbZ2dmcO5fJoUOHW73OJyIikp//4hfMnn1DqxMsLy9P/P18r5qEaseOHTz11FMtTqjCwsIYMXIUw4cPZ+jQYQQEBLgoQvtqa2vZs2c3mzZuZMOG9Rw8eLCldbtygD8C/wKct51RCAFIYiWEmsnUT5d0c/QGRVGIj09gxIgR9ElKIiEhkaioVuVjdmVmZnLo0EH279/Phg3rST9ypEU/UKOju/L0088wdNgwh+/RarUEBPhh8OhYu/xa6+zZszz99NMsWrTI4d+7yMhIJk+ewoS0NJKT+3a45PL8+fN8//1KVn63gt27d7fkv4n9wKPA966LTohrT8f6hBCifYUDrwG3OHKxTqdj9JgxjB07jlGjRhMS4pYNgQ1ycnJYv24tq1evZt26tQ6vxZkxcxa/+93vm91JWD9K5UcHyyNapba2lrfeeouXXnqJysrKZq/38PBgwoQ0Zt9wA0OGDO3QZzteLiPjNIsXLWLJksXk5uY6etsS4DfUTxMKIdroKvjIFMIp5gJvAZ2au7BnTAw33nAT02fMICgoyPWROSAvL5dlS5eyaNGXnDp1qtnrAwICeOrpZ5g0abJNn6Io+Pv74tXEjsArye7du7n//vs5cOBAs9cGBQVxy9xbmTt3LkFBwW6IzjVqa2v57rsV/N8HH3DwYPPfN1AC/IH6kVq3V2e/6aaF2i++uFmmJcVVQRIrca3TA68AzVbtHDBwIL/+9W8YMqTjHrtmsVjYuHEDb/3tb+zZs7vZ6++48y4ee+zxhurdWq2WoMAAl+wmdDeTycSrr77Kyy+/3OxoXmhoKPfcex833zznqtrtCLB50yb+9rc32QGnE+YAACAASURBVLVrlyOXf0t9KZE8V8WT9uhK74ramn5YSAVSQUm1wK6Nb067zVXvFMKdJLES17JwYCEwsqmLUgcM4P77H+jQCZWaiwnW7t1N/0AdMHAgr7/+BuHhEQR28rc5IuVKdObMGe6++262b9/e5HV+fv784pe/ZO7cW9t0+PGVYNOmjbzyysscOXy4uUvPAfOAtW15X+p9O/TexuxudWZtjKKp62VRlBTFwgAgnvryJZc7s+HNaV3b8j4hOgpJrMS1qjewiiZKKAQFBfH4737PjBkz3ReVk1ksFpYtW8rLf36JwsJCu9eFh4ezdOlS4uPj3Rida/z444/cc889TR6ArNVqmTv3Vn59/2/aZWdfezGbzSxZspjXX3uNvLwm12DVAX8CnkNl5+CYh5YEVCuaYK1ZF2SpUwI1WnOQ2UywolhisCgxKMQAXWnJsWmKpeuGN6afadl3JETHI4mVuBYlAj9QP2JlQ1EUZs++gcce/x3+/u49BNlVCgoK+POfX+KrZUvtXhMSEsKyZctITEx0Y2TO9eqrr/Lcc881eQZgYmIfnv3Tn0hIuHK/z7YqLSnhL395hS++WNjkLkLfsLjS3tOfPG3wCvS+2ET9gc7OH9ZUlHkb3pj6H6c/Vwg3k8RKXGtSqN9errqFz8vLixdefImJEye5Nyo3Wb36R37/u8cpLS1V7Q8ICGDx4sWk2j/It0OqqanhoYce4pNPPrF7jYeHBw888CB33nX3VTHd6Qw7d+zg8ccfJSvL/ik3Rv9wEqY/hVegzZnizvb2hjen/drVLxHC1eTTRVxLelO/bkR1u1ePHj3417//j4EDB7k3Kjfq3r0H48aNZ/PmTRQVFdn0V1VVsXTpUiZMmEBoaGg7RNhypaWlzJkzh2+++cbuNbGxvXjv/X+Qljbxiimd4A6RkZFcf/31nD59mpMnT6peY6ouIzf9J3zDe2P0C3N2CDUo7FZQvrIofHd263/Snf0CIdxNRqzEtaITsAXopdY5bNhw3lzwN7y9vdW6rzplZWX89qEH2bBhvWp/ly5dWLNmjdtrc7VUcXExN9xwQ5OL1GfMmMkzzz6L0Xh1lI9wlWVLl/L0009RVaVe50uj1RM36XGCeg5t7SvqgHSw7AR2orCzTlO5c/NrNzdfWEyIK4gkVuJaoAW+AqaodY4aNYo33vzbVb8rrLHa2loefvghfli1SrV/8ODBfP311x22/EBubi4zZ87k4MGDqv16vZ4/PPlHbrllrpsju3IdPnSI3/72ITIyTqv2KxodcWmPENzL7kZaE3AGOAmcxMJJNPX/W1llObzzvekVLglciA5EEitxLXgVeFitY/x11/Haa2845ZDiK5HJZOLRRx5m5crvVPvnzZvH22+/7eaomldcXMz06dPZu3evar+fnz9vLljA4MFXVomMjqCkpJgHH/gNW7ZsUb9AUSxdBsz5otuQ+T9ZNORZLORplLp8rVlfUFodemHnewNq3RuxEB2LJFbiajcBWInKf+uDBg3mn//6t2oxzAMHDrB8+dekp6dTkJ+PwWCgZ88Yhg4bxsSJk/DooGfnmUwmtm7dwvr16zmfnU11dTUREREk9+3L+HHj8fXzs7mnrq6OX/3y56xbt071me+88w633nqrq0N3WGlpKTNnzmTnzp2q/VFRUbz3/j/p0aOHmyO7etTW1vLU//4PS5YstndJDTAbWO6+qIS4MkhiJa5mXopGe9hirotu3BEZGckXXy62OS/vzJkM/vjkk2zfvs3uQ8PDw3n4kUeZPn2G8yNug+XLv+Gvr/7F7g4vg8HAXf/P3nnHR1Gnf/w9s303vRdCEgJIC713VFRQqtiwoCenngX19LxT706veKfez7N7J3fS7A2lqhSRFggQeu8JJKTXzfbd+f0RCGxmNtmEIuHm/Xrlpfudme98NyGZzz7P8/089/2CBx96SFZvVFtbyx2338ahQwdl14WFhZGdnU1SUtJFWXdzcLvdTJ48OaAITEtLY/bsuSQkJl7ilV15SJLEK6+8zNw5swOd4gZuQm3irKLih7orUOWKRWcOf9/rso9sOG42m5k1ey4pKf7bxzdu2MBdd91JXl5uo/NarVaWL19GZUUFQ4YO/dl3mXm9Xv7y5z/xz3++FtBG4cx5W7ZsYdWPP3LttaP9CvX1ej3Dhg9n8aKFOBwOv+ucTidHjx5lypQpF+09BMuMGTNYtGiR4rH27Tswd96HxMVf8J1r/5MIgsDQocOQJCnQBw0NdQ7tP1JXV3XR6fPAInPG4DtH5G36RHkLo4rKZYAasVK5UhmIIGQhSbJ/439/+RUmTpzkN7Zr1y6m3XMXdrv/BiWdTkdCQgJWq1XRuXzcuPG88uo/EISf51fJ5/Pxu98+w6JFCxWPa7VaxT55qalpfPLpZ7KI3dq1a3jwgV8qmkbOnj2byZMnX5iFt4B//vOf/OlPf1I8lpaWxocffUxMzOW9i7G18uYbr/Pvf/8r0OFKoD1QdjHuPeaxpYZq0Xe9ALcjMR4wi0hXrXlr3KGLcT8VlfNFNXRRuVJ5RUlUDRw4kAkTJvqNVVZW8viMx/xEVWxsLK+88ipbcraxbPlKsjZk88WXXzN48BC/azPat//ZRBXA7l27+O67pX5jAwcOZPbsuezctYedu/awaPES7rrrbj9TzNzc4zzzm6dl8w0bNpzJk29WvNezzz4rE56XilWrVvHXv/5V8VhycjKzZ89VRdVF5PEnnmTavfcFOhwBfMIFzICMfOK7tGEzlkwfOmPxpzWC75QgsQCJOwALIPgQp1+oe6moXGjUVKDKlcgo4I8NB00mEzP/84FCmxqJg4cOceDAfqCu/uqzz7+kT9++fmIkPj6ecePGU1VZya5dO3nk0cd4+OGf1yg6PiGBzp07s3LlCjweD/fedx+v/uM1UlJS0Gg0CIJAVFQ0w4ePILN7d5Yt+wGv10tCQgJ/+9vfiVHwqerXvz+LFi3EarX6jVutVmJiYujXr9+lensA5OfnM3HiRGpra2XHQkJCmDV7LqlpaZd0Tf+LDBkylBMnT9b/njQgA9ABK5s/syQMfmxARtrAO65vO3Dqo20HTH3DJ0l/AsYD3QC5AZkgdQgdM+mtkp++lPUxVFH5uVFTgSpXIj9SJ678+N3vnm3sUzeff/4Zr732f8yZM7fRPnKSJLF2zRqGjxhxQRZ7Idi0KZvVP/3Eb575baPnLV2yhFmzPuDd9/5FfCO1SD/+uJJHHv6VbDwuLo6dO3diMl0as02v18vYsWMVt/7rdDpm/ucDBg5ULRUuFS6Xi/vvv48tyoasEnXF7EuVDgKMfHGV1lNiaydpfb2APkAfQRJ6Uxf1ahYSwm3r37rxi+Zep6JysVGFlcqVxmBgfcPB2NhYli1f2aQJaE1NDaGhoRdrbZcFXq83qF550+65m02bsmXjf/7zn3n88ccvxtJkvPbaa/z5z39WPPbHP77AHVPvbNZ85eXl7Nmzm/379lF9utA/Pj6eHj160qVLl/+ZHoIlJSUUFORTWlpKeFg4SclJxMcnBPX+KysrmXLzJPLz85UOFwE9Rj68RHDpfemij04IwlVIdKSupVQGcGG8SgTeX/fmTQ9dkLlUVC4gqrBSudL4FpjQcPC553/P3Xff8zMsp/WSs2ULd90l96+KiYlh7969F92RfceOHVxzzTW43XK/yfETJvLKK682Y67tzJ0zpz4VqkRYWDhTp07lrrvvITo6usXrvlwpKyvlk08+YfmyZYq2GpGRkdwwZiyTJk0mMzOz0bn27d3L1Km3y3aQAkSm9vF1nfCieJEeL4cE+AxJ/Gzt22P3XowbqKicL6qwUrmSiAYKaPCJOCYmluUrmo5Wqci5/xf3kZUlCwDy7rvvcvvttyuaq14IPB4PV199taKzekZGBl99PT+o3n8Oh4NXX3mZTz/9JOh7m81mXvzTny87n7KW4vV6+eCD//Kfme/L6uaUEASB8RMm8Mwzv5PtGj2X+fO/5vnnnlU81uHaJ4jvcm2L13wOPiS2I7IciS/XvXWTsiusisplhCqsVK4kHgXebjj41FNPM/2XDwQ9icfhoyavFluxE4/Di86iwRilJyIjFFHbun5lbCVOagvs2EudCBoRnUVDWJoFc2xw0abt27dxx+23ycZD4juQNngaHmctnGPN4HPbzhFbEl7X2dZwGlFEg9z6AepsIc5tK1R4ZCt5e9fJztNoNHz62RdNRlQAysrK+MV90zh4UB6dCYapd97Jc8/9vlWnB202G088PoO1a5UNVRsjOjqaD2bN4aqrrgp4ztNP/ZolSxbLxrV6C73v/hd6S2Bh1giHBISVSL6VTp971aZ3J18UGwcVlYtF63pKqKg0zibAb8uaKIqs/PEnEhISmry4dGcVx5cXUpRTgdflkx3XmjTE9YwkY0ISke1DLtiiLzQeu5fjPxRyck0J1XnKPW9Dk00kD4ul3Y2JaE2NC4dJkyawf98+/0FBoN+9szCEXniLA6e1lK0fPoTXLU8zPf7Ekzz0kLyoviEOh51p99zNzp07/cYTEhO59dbb6NWrN8nJyfh8Xvbv38/aNWtYtGghLpfL7/zmphwvJ2pqavjFfdPYvXu337her2fgoEH07dOX6JgYaqqrOXT4MCuWL6Oqqsrv3IiICGbNmkPnLl2U71FdzcSJ4xXd/mM6DqPTDY1vpgBOgZQD5CCIWwRBk7P2jRtONeNtqqhcdqjCSuVKoROwr+Hg4MFD+GBWwJYcANhLnez64BiFm8uDu5MASQNj6PFQO3SWi5MKayn5WaXsmXMcR7mr6ZMBfaiWrtPSSRkZWCB9+OE8/vaS3EMqddBdpPS7vcVrDcTBZf+keP+PsvGOHTvy9fxvg0o//vrXT/Dd0rOb0zQaDY888igPPPhQwAhUcXExzz37O9avX1d/zVtvv8PVV1/Twnfy8/Loow+zcsUKv7HJk2/miSd/TayCzYbb7ebTTz7mzTffwGY7K8hjY2P58qv5AXeRbty4kV/cN03RVDZz8t8Jb5MJglQsScJ+QeKAJHBQlNjnk7zb1r8zQbn/kopKK0YVVipXCr8GXms4+MorrzK+gSHouVQdryX7pb04KuQF0k1hSTDS/7edCE0xN/vai8H+T/M4+PXJFl2bdkMCmb9IRxDlfxIqKysZMXyoLJpjjk6l953vtuh+gbCWHGH7Z0/4pRehLvL48Sef0rNnrybnWLF8OY89dtZfTKPR8OZbb3PNNU3X/Ph8Pl55+e989NGHvPLqP7jppnHNfxOXCYcOHWT6/b+guLgYjUbDH194kVtvlad1G3L48CHunTaNsrJSoO57/9Lf/i7rVnAuv/vdMyz49lvZuKgzHup7x/8N2jTvUTWdp/I/Q+stHlBR8ed3gF8xiMFg4KW/vexXu3MuNSftrP/9blw1ynU/TeG2eijcXE7S4Bh05p/3V2nfx3kcmt8yUQVQediKu8ZDfO9I2TGj0cjBAwc4fPiw37jbXk1CtxvQ6C+cp9XBH17DUV0oG7/11tu4/Q75DkUlUtq2xe3xsH37NiRJ4unfPMPNNwfX51AQBIYNG86IESMZOnRYs9Z+uREdHc11113PmjWrefLJp4ISVQBRUdEMGz6MhQsXYDQaefPNt7nhhjGNXtO3bz++/upL2S5ByeeJzt+x9BCwtaXvQ0WltaEKK5UrARF4hwYOzb179+HW25QfJl6nj6y/7MVR5qwf04fo6D65A5kTOtCmdxxOqwtrSeMtXDx2L2V7qkm9Jk4x2nMpKNxSzq4Pmu5JG9cpiqGP9KTfPV1pN7wNXpeP8uPV9ccrD1sxRuqJyJDXj7ndbpYvXyYbN0UmFYfEdSgCKk5/AThOfzmBoLdiVp/aS+7Gj2TjFouFt995F7M5uMigRqNh8ODBDBxQZxz6618/1ey2Q3Fxcc06/3IlLCyMKVNuoUePHs26Ljo6mi5du/KL+6fTs1fTUUKj0YjFbGb16tVKh3sC/wJUl3SV/wnUVKDKlUAvFD4RP/zIozz22AzFC/Z/doKDX52ofx3TPoJb3x9NSNzZh7ckSbz9z3f5vz+8TsfQbgyJGo1Fq2wemnl/OuljEs/zbTQfr8vHil9txVmlXFO1r2Y7WyrWMmLKEN6c+U9ZfdG2zw6w/KWzrub6UC3XvN0bXYh/HVNZWSnDhg5RqqP5CLg7qMW++KI4tKhvw35C9ayfOfFbyesZ3nD86ad/w/3TfxnULVR+PrxeL5MnTQi0C3MGCjt2VVSuRFRhpXIl8DjwRsPB2XPmKbY78dR6WP6rrbhtdSlAjV7D/d9OICJFWTRNmzaNefPmYdJYmJryKzqGdJOdow/TMvrffdHoL21f82PfnWLXB8dk4x7JzWcnZrKrejPt2rVr1NBz0TNr2Pfd2Tk6TGpD5zvbys6bOGEcBw4caDhcCCRR187kfBgIbGg4qHqQtS7WrFnDgw8o9kc+BaRTF8VUUbmiuby2NKmotAxZrkKn09Gzp3L6Iz+rrF5UAXQYlRJQVAE8/fTTzJs3D7u3lnl5b/Gr9OdINqX5neOq9lCyrZKEAS3y7Wkxx5cVKY5/cfK/7Kqu6+c2bdq0Rl3Se9zS0U9YnVxbQuepbWUfuwYPHqIkrBKoq21T7MzbDJ5QGpw+ffoFE1WST6J0VxWnssuxFtixFTnwuiT0YVqMETqiu4YR3yeS8LSQK/ojp73MRf7aEioOW7EVOrCXOdGZtWjNWsJSzcT1jiC+RwTaFux4HT58OH379VPqJZhIXWTzvxfgLaioXNaowkrlSqB9w4GMjIyAztzFOyr9Xsd1alwMde3aFb1ej8vlwu1z8W3BhzyS8QfZeaeyyy6psHJUuKk5KfepOmTdw46qsz3+OnTo0Og80e38s3P2UicVh61EdvCvtRowYCCzZ89SmqIr5yes2gCTGw5GRUVx2+3nb+cg+eoie4fm5yumTJ1VLmpOQMmuKvZ/doKIdiF0vqstsd2b3Rf4ssZ6wsbuebmU7KhE8vkHGM9s4Kg6ZuXET8VojSLpYxNpPyG52ZYijzzyGPfdq9g+6ilgFiA3iVNRuYK4tHkLFZWLg0w5tG2bGvDkioM1fq89zsZrar1eLx7P2QhXnv0IhQ75DrxAZpwXi8qDNYoJuM0V/i7bFRUV8pPOwVEtFxs1J2plYx2v6hhoCmX3yOB5AJBt3bztttuDalvTGDUnbKz+zXZ2zz4WsA6tIZVHrWz48162vHYQj6P1awDJJ7Hvk1xWPb2D4m0VMlGlhMfh49D8fH58bBslu6qaPP9cBg4cSI8ePZUOdQLGNmsyFZVWiCqsVFo7YYBsC1dqWlrACxraK+RtatzoefXq1fh8/g/YE3b5Ljxb8aUtHwlkE3HS7l9ztXixvOXIuRxdKxeJtiL5e0lISCQ0VDFl2rXRGzSOCExrOKjVarnt9jvOY1oo21fDut/vpjq3ZYK3YEMp657fiaO09ZYF+dw+cl4/yKH5+Uje5pfBOavdbPzLHo59L7fAaIz7pyvWWQE82OxFqKi0MlRhpdLakaUBAdqmyIuvoe5B43P7i6STW4vZuGyL4vkej4c//EGe9nN45TYMXtel3U3usSsLK6fP30vou+++Y8GCBYrnnjx5kqz/bJeN+zzyh7AgCKS3a6c0zfkIq2sB2Q/ruuuvD+j0HQxVx6xs/Mse3LUt8yg7Q3WujY1/39c6I1cS5LxxiIIN5+fNKflg1wdHyV9XGvQ1V199TaCo8Rgg5bwWpKJymaPWWKm0dtKUBtumKgsrUSeiNWvw2PxF0LuPzeboCwe544476j2PCgsLmT59Ohs3bpTNE6aT19/oQ5v+daquruLEiVyqKiuprKzAarUiiqDTGzAajISHR5DSNpXExGREsfHPPfow5fuF6yKxeqr9xm6//Xb+/ve/8+CDD2IymZAkiR9++IGnHn2aaabfyOYIVFfToX0Hdu7Y0XC4I3V/S1qiYhSLcYI19FTCbfOw5bWDfv0edSYtvW67ivShyejNOgoOF7J43jJ2b95DiDaMNHMHTBqL4nzVuTa2vn2Q/r/p1OI1/RwcXXqKU9mBRZVHcpNrO0ylu4xRtwxj7L3XktwpHmetm9wNp8j69w7Kjp1OA0qw/b3DhCSZCG+n/H06F41Gw6233cb//UPWZ1ED/AL4U0vfl4rK5Y4qrFRaO4q5qeio6IAXmGMNsvRQipDBXXfexe9//3u6d+9OdXU1WVlZOJ3yNJAoaMiwdJaNm6KVd95ZrTXs3rWDgwf3UVh4SrGnWkN0Oh1tU9Po02cAaWntFA0uzfHK9UcdQzLJt+f6jTkcDp588kmee+450tLSKC4upqysjJ7hAxXjB6ZoZbf69PR0pWE9EEvdlvrmYABkPWMSEhIYMEBukxEs+z/No7bwbNQuLCmE22aOJjI1rH4sMTOG3hO78sILL/CXv/wFUdDQM3wgN8RPIVwnd58vzC6neGsFcQrO9JcjtmInez/KVTzm8jn5sWQRG8pX4vQ5mDVrFveeU2xu1mvoPDadjJEpzH9sJXmb6tKAXpePXbOOMvQvmUHtmpw8+WbeevMNWSsk6nYHqsJK5YpFTQWqtHbkNuGA2RLYpTuqc5hsLEIXTc+IgRw7dowFCxawatUqRVEF0DdiKCFa+Rwxmf5RLKfDweqfVvL+v99m9eqVnDpVEJSogjqn8yOHD/HF5x8xZ/b77Nu3R3ZOWJoFjV7ePGFQ1DXoRWWRZ7fb2bdvH2VlZYiCyPAY5VYl0d2Ud8RFRQcUrIGVbGCuoa5Gzo9x4ycEbJTcFI5yF3kri+tfC6LApDdG+omq+mOCwJ///GduvvlmfJKXrZXreevIC7IatTPs/jA3qMLvy4EjC/JlKW8Aq6eafx19iVUli3F47dx3333ce++9inPozVrG/2MEhhB9/Vj5/hoKNgaXWoyMjAzUwDoD6B3UJCoqrRBVWKm0dhTzEiZTYGGVNFBZA4xPvIsYQ0KjN4szJHFjgrIFwLnRjP379/D++2+xceM6PJ7mN3g+l+LiIhYu+Ipvv/kSh+NsbZfWKBLfRx5BCddFcnPSfQhNhBWui5tMskleBxOWasYUrVe4AiIiAloQtERYKXb1ve6661swVR3HvjvllwLMGNGG+M6NL+2FF16o/3+rp5rZua9T6S6XnWc9YaN8f41s/HLDVeMhb1WxbNwreZmb9yYFjrz6sSeffLLRucxRRrqOz/Aby1up7J2mRCNNrM/fR0NF5TJFFVYqrZ0AwirwNv3oLmGEpsiFl1lj4eH05+kSqtwbLTOsL79q9xxGjXzuyA6hRHcORZIk1q5ZxcIFX2O3N95nsLkcOLCXWR/8i/z8s614Uq9TLvDuGTGQaamPE66T+2oZNSYmJ93LqNibFK/NmJAccA2RkQFTYTEBLwqMTEElJyfTtWvLa+GLt/l7lKX2b7rNUGZmpl9vQKunmqWFnyuee76F4JeC0t2VfuLyDBvKV5JnO1L/OiQkJKjvdXKPWL/XJbuqcFUHV043fMQIwsMVuxjJfMtUVK4U1BorldaOLBWo0WgadRoXRIGu09LY+Ne9smMWbSjTUh+n0HGSQ9Y9WL3VhGjC6BjajXhDAMEhQKc7UpAkiUULv1ZM2ylhNpuJjo5BFEVsNhvV1dU4nY5Gr6mpqeHLLz7httvvJjExidjMcBL6RVG4WR5h6Rzakw4du3KgZhcFjjwkyUecIYlOYT0wisrCMzTFTJuhsYrHoFFh1dyIVScUqrtGjbq62Q2Tz+CsclGV6++/pQ9RrhVrSGRkJMXFZ6M8O6s2cWPC7bJ6q9JdlQ0vvewo3ansO7WuzL+Jtl6vD+p7rTX6p2Ulr0T5vuqgzHB1Oh2jRl3Nt99+0/BQBnWbHhQbC6qotGZUYaXS2pH1O9HrldNY5xLXM4K218aRt0KeMgFIMLYhwdgmqAW0uzGJ2O4R/LRqeaOiSqvV0rNnL/r27U+3bplYLP6a0OfzkZeXy969e1i9ehXFxcopF6fTwReff8QdU6cRFxdP5v3pVBy0KhpgagUdXcN60zWs6ZIWjV6kz5MdERqJY0dEXDBhNVppcPCQIc2c5izWAqfMMLW6wNrkdR6Ph/z8fL8xCYkD1p30jxzhN24rPn2Py7jlTU2+PFJa4jxFhcvfLqG8vJzi4mK/aJ0S5cerZWPWosY/AJzLqKsVhRXAjajCSuUKRBVWKq0dmQxoyqbgDD1+mYGt2BnwE34wxPeKoOvdqezatZ3s7CzFcwRBoH//gUyePIW4uMDeTKIokpaWTlpaOjfcMJacnM18+unHVFTIo1EOh51vv/mS+37xIKYYA/1/14msF/a02EtL0Aj0fLQ9YW0D16ZBXZQt0KFm3nJYwwGtVkv//gOaOc1Z3LXyWraDK/IY/KsejUZmli1bhtUqF2ClTrkpptflw1HpxhgZXCTsXMpKSygqLqSkpJia6mrsdhs2Wy2CKKLXGzAZTYSEhhIdHUNCQhJxcfFB/1s+l4ZWIgBlLuUPEHPnzuU3v5HbbZxBkiR2LpL1h8ReErywGjx4CFqt1q97wWmuB14PeiIVlVaCKqxUWjuyJ2awDyNBIzDw2c7snHlUsdi3KdqOiqPHQxnYHLUsX/ad4jl6vZ7773+w2YJBFEX69RtAly7dmDPnv2zZImtqS0VFGVnr1zBi5DVEdghh6F+7sfn/9jfbAV5r1tD311cR17Pp3ng6nQ6NRoPXK3t4N7dTssxPoWvXblgsTXskBcLjkAuKkkMVzJv5EdMevFvxGpvNxm9/+1vl+aTzMxeVJIm83OPs3buLo0cPY7U2r/Bdr9eTnp5Bh46duOqqLmi1wf25Vvo+uCXlDRQvvfQS48aNo1MnZY+uV155BffBSAxiwx9v8CG7kJAQ+vTpS3a2zA9uMC33P1NRuWxRi9dVWjvyf8PNqNERdSI9H2lPnyc6YkkIThtY4o30/20nej7SHkEjsH7dyNokswAAIABJREFUGtxueRrOYDDy7LN/OK8ojMVi4eGHZzB48FDF45s2ZVFaWicKw9tZGPFqD9LHJCLqgvvVThoSzdVv9ApKVJ0hQKq1OU39klCor+rZS3nTQLAYI5RTwK899xZvv/22rC3RyZMnGTNmDLt371a8LlSrWHTdpBGs2+1my5Zs3v/3W3z22Tx27tzWbFEF4HK5OHBgH4sXfcO77/yTVT8up7ZW3sOxIYYIeTQtQmETA0BVVRUjRoyQOfPX1NTwzDPP8MLvX1S07mhuY+YBAxR/B0KB8/uhq6hchqgRK5XWjkxFNWUzoETy0BiSBkVTkF1GUU4lpbsqcVa6kHx1kS1zrIHI9qEkDY0mrmckorbuHhUVZezYkSNflCDw0EMPk5bmb6jpdrvZsWMHWVlZbNy4kaysLCorK+nXrx8DBgxgwIAB9O/f36+diyAI3H//A1RWVrB3r38Nl8/nY+vWLVx3XV1vW12Ilsz70+kwIYmT60op3lZJ5VErHntdFENr1hCSYCKuTyRthsUQktT8JscGg0Fpx2NzJuqrNNg9s3uz1+K3gFjlDQsp+nbMmDGDt99+mxtuuIGIiAj27t3L0qVLG925mWaWN53Wh2nrf/YNkSSJ3bt3sPqnldTWNl3b1RwcDjubNmWxbdtm+vUfxKBBwwJGsCxxRpktRKIxBaNowuGTv9/i4mImTpxI27Zt6d69OzabjezsbGpra+kY0k3x98kY1bxUaL9+/QMdGgHIw7EqKq0YVViptHYUUoEtqywWNALJg2NIHnzWOcBT60Fj0gYs6N6zZ7csEgIwcuTV9Ox5tmBckiReeuklXn/9dcrL5TVTK1asYMWKFafXL3L99dfzwQcfkJiYWD92333T+f3vn5XtHNy7ZxejRo1Gpzv7sDPGGGg/MZn2E+t2Mvo8El6XF535/H/ljUbFyF5zUoHdFAczFYeDxhxrQB+mlVkB9AgfyLKi+Rw6dIhDhw4FNVesIYFUs7wNZXQX5ShWdXUlixZ9w8kTeYrHLxRut5us9WvYt3cPY28cT5s28tZNYekhsKbEb0wr6OgRMYDs8p8Czp2Xl0denv/6+0bKSuEAiFEw2W2M7j16YDAYlEx3FUW2ikprRk0FqrR2ZP+GW7JdXxAEtFrt6Rqis1NqLYFFFcCRw/LCXoPBwPjx/t6X//znP/nDH/6gKKoa4vP5+O6775gwYYKfU3tMTCyjRsmdrJ1OB4cPN765StQK9aJKEAR0Oi360/VSzUWvV4wMNSdiJVNQRqOJNm3OrzevIAok9JenvCJ0UQyNCd50VEBgbMJtiAo/+Nge8pTp4cMHmD1rZrNEVVhYGG3apNCpU2e6dOlGRkZ7IiMjg64PrKgo45OP57J500aZm3/SwEjFEqjRcRMxaYLfY9DWlEFmWD/ZuDFKT0ib5u1V0Ov1XKVcx6WmAlWuONSIlUprp8XF61DneRUaYsFkMvoJMrfbTXWNFadTXjt1BqvVSlGRfOdYz569/RzKa2trefnllxXnCAkJwWQyUVpaKntAbt68mYULFzJhwoT6sWHDhvP990tk85zIO07nzo2bPYqiSFhoiPy9ejzU1FhxOIIrejcaFYVVcyJWXRoOZGRktGgHXEOSh8QqWmhcHzeZU44THKjZ2eQco2JvUjSJ1Zo1JA/yd5XYtm0LK5Z/pxi1PJeoqGj69u1Hly7daNeuHaGhyhEfp9NJXl4u+/btZevWLeTmHg84pyT5+PHHHygvL+W662+s/5maYo1EdQyj/IC/TUKoNoI7Ux5hTu7rTRbmR+iimZryK0VxmXptfIvsJrp07qLUwLs9dW2N5J4OKiqtFFVYqbR2FJ7Gwf3V1+m0REcpRwl0Oh3RUZFYrbVU1yjXyxQW5iv2/uvVy98zatWqVZSWnvUQSk9Pp1evXqSkpNQbbjqdTgoKCjhy5Ajr1q2rP/fLL7/0E1ZJSckkJCRSWOjf7ziQ51X9+9FqiYqKUIxQ6bRaoiIjqK21UVXddJF1gFRgcyJWsk7OGRkZSuc1m9jMcGIzwynZ5W+hIQoaprV9nO+KviSrbDleSb5zziiaGJNwKwOjRikv+oYEdCFn/2Ru2byRlSt/aHQ9nTp1ZuzYcXTrlhlUJNVgMNChQ0c6dOjI+PETycvLZdmy79mwYX1A8bZ9ew4er5uxYyfW36PTHSlkvSj3VOsQ0pUH2z3L5yf/o2gnceacW5LvV3Tt15o0tBvbtJu9El26KAp/EegKbGjRpCoqlyGqsFJp7bSoxkqjEYkKIvUSEmLB4/Vis8mLfqurlT9kNyxYX7lypd/rESNGkJaW5jdmMBhIT08nLS2NHTt2UFNTJ3CWL18um79NmzYyYVVTE/gDvygIAUXVuVgsZnw+HzXWxnee6ZVd7YONWEWg0Hg5uU1wZqzB0OXuNNb8bgdSAx2iETTclHA7g6KuZnvlRvLsR7B7awnTRpBm6Uiv8EFYtKGKc5piDLQ/p9XPnt07+PHHZYrnAiQkJHDnndPo1i3Tb9zn87Fnzx6ysrLIyspiw4YNaDSa+o0LgwYNolu3bvWF6W3bpjJ9+oPceOM4PvxwDvv2ybsFAOzetROLJYyRI+tSxTHdwkkYEEVhtjz13NaUwVPtX2J39Vb21+ygwl2KgECcIYnu4f1oZ1G2XgDodFuKn7hsDh06dgh0qCOqsFK5glCFlUprp0U1VqEhIX61VI0RFhqKw+7A1yA65XYrewOFhMgd1YPFbrf72RkovRezWe71FGgtdeuxBF1LFRISgs3uUPKpqsdoOK+IlbzaGkhMaFkURInwdhZ6PNCe7f8+rHg8Wh/HNXHjg55PEKHPEx3rLQaKiwr5/vvFitFKgOHDR3LnnffU/xytVivz5s1j4cKFbNy4kaoquSHt/v37mTt3LlBnsdGnTx8mTJjA9OnTCQsLIzExid/85lmWL/+BL774VPHnk71xHfFx8XTuUlfC1vOh9qzN20XtKfmHAlHQ0D28H93D5TVUgYjrHUm7G5OCPr8h6entAh2Sb79UUWnFqMXrKpctwx5bfOPQGUseGTxjcTeQAqmlZtdYCYKAyRR8SZAoKp8fSMB5PP4PvTYNojEffvghOTlyi4aioiL+85//UFZ2ttFv27ZyHaKws6rRNj5mc/BZOkGgye9NgD6MwX5DFZ/MCYkJQV4eHG2vjaPdTS0XAWeoc6TvQFSnukiW2+1mwYIvlVzEEQSBqVPv5r77ptf/PAoLC+nfvz+PPPIIP/zwg6KoakhtbS1r1qzhqaeeYtCgQRQVFdXPf911N/DUU7/FoCxu+WHZEqqr6+6hD9Uy4NlOGMKa7xLfkOjOofR9vMN5tfIJDw8P1GtSFVYqVxSqsFK5bJFE6RGQ3hFh17AZS0qGzFj87bDHlzw55NElfW+55YszIZhmG4Rqtdpm7xw818rgDGaTskv4mQfbGe655x5SUs7uePN6vSxatIhPPvmEmpoaJEkiJyeHDz74gIqKivrzRFHkD3/4g2x+u92msD5lYaXVappdFK7TNR7INigXr59Wb5Iw5MmFXYfOWPLI0BmLvxwyY9F/Gpyn6FQZFdV0Q9/m0u3eNDLvT290V2djaE0aBvyuEynDzzal3rhhXcCdnXfffS+jR/vvPnz++efZt29fwHtYLJbG2gSxd+9eXnjhBb+xzp278NRTzyiKaafDwYoVZ7sAhCSZGP5KJuHpsl7lQZPYL4qBf+iKtpmmoEqkKHxQQMEsVkWlNaOmAlUuS7q++IWecqHeREeCaAEmSJI0QRDhVKK5ZsjjizaX7PspqfzoRmqKDuGsqdsN1pRBaEt8rpTShpYQ5QdiWVkpKSlnHyDx8fGsWLGC8ePHc+DAWXuGgwcP8q9//YuoqChOnjzpN4fJZGL27NmMGzdONv+ZCIbfWgK0glHa1dUUGrHxtKHhHLsFQdRiiUknLKlrVLvh0z9HWDwSrxh3phuyIAhVI19c9aufXhx1JsSj2Kw5QCTDf10aDSajsU4sakR8Pgm3y4XD6QqYukwfk0hE+xD2zD0uM81sjOTBMXSZloYp+qx4qa6uIjt7veL5N900XmaFkZuby4cfflj/WhAEYmNjSUlJISUlhTZt2hATU+eZVlZWxsmTJ8nPz+fkyZMUFhbWp5BnzZrF888/7yfOO3ToyC9/+Svee+8tWUry0MED5OYeIzW1rtbPFGtk6EvdOPT1SY4uKcDjCC41bYjQ03VaKm2GxTZ+nkGPQa9Ho9WAVJf6drpcOJ0u2drilXtlnn9oUUXlMkIVViqXJRFl5gEINPYxO1SQhKvjOo0irlPdLi63vRJr0WGclbm8+9EPdO+QRO/MDCwNIgI+n3JtTGM0rK8CiIhQjrKcOHHCzxwUoGPHjmRnZzN16lSWLl1aP26z2bDZ/CNQycnJfPvtt/TtK/dOdLvdlJTI7QSiY2JkY4HW3RSBaoe8Xh/b9x+n1BdHu+EPEBrfEUtcO0SNHiAEuFWWsZUI91RYBwJntjoqKqiwMGXjTagTJGGhIVgsCkLWZCRMkqittVFjrVVce2SHUIb+NZPirRXkryulaHuFzEQU6oRE8pBo2gyPIyJDLlQ3ZWcpCriOHa9i0qQpsvGFCxf61b5de+21DBkyRPE9RkdHEx0dTY8ePQBYu3Zt/aYHt9vNokWLePjhh/2u6du3HyNHXsOqVStk823YsK5eWAFo9CKd7mhL+o2JHP++kOJtFVQeqUVq8LsgiAIxXcNoMyKWxAHRaE2BRbZepyMiIkzRAd5iMePxeKmqrvazLImLi1OaKoG6yHPwxYgqKpcxqrBSuTwRuZZmagKdKYLItL5AX7ZXw/YcmJN9BI+1CLNQS1yohvZtIujVJZVrhkWgaUaKzO2SP4gjIiLR6fSyPoEnTyobRYaHh7No0SLee+89nnvuufqdf+cydepU3nzzzfpIRkPy808qFsNHRylHFbxeLz6f1KwondvtpqSili17jrPvWAkny51UuwxIhmhErQFSbyIpNejpECThOs4KK8WCr0DpMFEUiY6KbDQ9KQgCISEW9Ho9ZeUVAYVhXO9I4npHIvkkbEUOnNVuXDUeDGE6zPEGDOGB69ScTgc7dmyTjWu1WqZNu18x3dpwR2fXro37jJ1Lt27d/HaTLlu2TCasAG655TZycjbL0s95uccoLS0mJsZfyBjCdFx1awpX3ZqC2+rBVuzEXevB6/JhTjBiiTcGbNlzLkajgciI8EZT6lqthuioSKqqa6itrfvwEKssrHTURTJLlA6qqLQ2VGGlclkiSCRQ1/X+vP6NiloD+oi2eIACoKAA1hTYeXvlOpJjLCRGGUmMMpEYbSQx0kRilJHYcAP6c5oYS5KETaGnXF1qJ46CAv803v79+5EkSfGhI4oijz76KJMnT+bRRx/lm2++Aeq257/33ntMmjRJds257NolM1gEIDZW8YGFJEnYHQ4sCgXs1TY3BWUOTpXbKSizc6rcQUGZnYO5JUgaI3XPuyTQgaBred2yBNcBfzz9UqZeNJrAdWBRkeFN1nydQa/XERUZTll5ZaPnCaKAJdGEJTH4ov4DB/bh8ch3Xg4dOpykJOVM1urVq+v/PyYmxs80tikiIyOJiYmp9z/78ccfFc8zmUyMGzeBjz+e5zcuSRJ79+xi+Ai5U/8ZdCFawltgnaDTaZsUVecSHhaK1+vF4XASHh4wMhmGKqxUrhBUYaVyWbLurZseHPnwF095deYhksQw6pq19gOUO+02E58kcKLExokSeSE4QJhZR1SYnthwA67achw1pSRGhRIfbSEpPorocAsWo0ibNm1lwqq6uoq8vFxSU9MC3j8pKYn58+fzySefsH79el566aWgHrw7d8qFlU6nJyn5dE9ASaLW4cPq8FJV4+RUaQWF5TYiYpKptHkpqXRSYXVRUuXE6Q6QedE0x0S9UTxAjiRxrpGXbBeA0sYAAIvZ3OhuRyUMBgMmkxG73dH0yc3gwH65f5QgCNxww1jF861Wq5/PmSiKuFyuoN+P3W73i0zW1NRgs9kUI3vDhg1n/vyvZJsaDh7c36iwaikRzRBV9deEh1HkLCE0VNknDAicC1ZRaWWowkrlsuWn9261Aj+c/mLQk1+YtB5jf58gDheQ+oPQl7r6jAtOtc1Ntc3N8cIzZpkxHKgCjnmAc2qcpLZoQhPQSE5EyYUoeRAlF8/+ez3RUbsx6sCo16LXioSYNGg0WgRBxGDQYdKLGGK7MmJiV5ZtzsXjOYrXW5dydLh8uD3e+m39DpeEzeFi60kLPlM/fJIWSRDxiXokdDz63na86E9HmhoiwsFTCuMXHA+wFYSfJJ/wE2b3uvWvTmiY75SpKKUaHQCLpTlm7mcJDbFcUGElST7F9G5GRnvi45X/+ZlMJtLS0jh+/DgAxcXFzJkzh6lTp8p8zhpSVVXFxx9/7Lf7sFOnTphMyt8Pg8FIr169ycpa5zdeVlZKba0Vi6XlOwLl99KjC/DzagxRFDGZTAFb+VBnHKuickWgCiuVVsOG12+1A6tPfwEw5NEFSbby3Gvtlaem6S1RXcyRKbFaY0jzOwu3FEHAiwGv4B9Is9rgRH0AwXv6K7CJZ9DoO5//HBcIt63Sa686VSL5PGvDk7p9qNV41v70xqTG83BKhq4KaUCtVhtQcDWFVqtFo9E0anLaHIqLinC55D0ju3fvGfAajUbDzJkzGTNmTP06CgoKeP/995kyZQqpqcpFakePHuXrr7+mtvas+71er+eDDz5oNErUvXsPmbACyNmSTdduPYiMjLogvRiNyh5mQWEyGgPuXgUCHlBRaW2owkqlVbP+nQkFwLzTX4AkdJ/0t65Oe9UYUasfrDOEdNWZI5MMYXEWUXP+Ron/i0g+D46qIrerprTE5ajc53XZ17mcNV/mrZ8rb0bXNHJhpVC9pdWenzbW6bTnLaycTie5uUfZqVC0DtC+fcAWLQCMHj2a9957j4cffrh+LTU1NcydO5chQ4YwcuTIekd8j8fDqlWryMrK8iu+1+l0zJkzh8GDBzd6r0Cu5hs2rGPDhnUYjEbapqTRNjWNjh2vIiysZQEibZD1borXajWBGngDBDbzUlFpZajCSuUKQ5B2fsNuYPe5oyNfXKXNW/3VCK1GO1oQdb00enN7nTk8Vh8SbTFYosWmTEX/F/C6bDiqijxue2WFx1FzwmWv3u62Va6tKN+71Hpkp9zjoWUE1duxJf5bF+J6t9vN/v172L9/L7nHjzYqzuLjFT2Z/HjggQeIjY3l7rvvro9C+Xw+1q5dy8GDB5k0aRKCIDB//nyZP1l4eDiff/45119/vdLUfsTExCKKYsD2SU6Hg0OH9nPo0H5+XPkDSUlt6NIlk67dugdy0lekOTtpGyKKIkZjwPRuy/K+KiqXIaqwUvmf4LRB5crTX34ktB8Wq4tqM0RvDu+r0Zq7inp9ikZrTNAaQyK0hlCzITRGELUXpGb+Z8Vtr8Zlq5DctgqHx2mt8jptRW5nzVGPrWqHraJwQ/mxrGyg6Z4r50dQvR19DTsoN5NAlguBqKwsZ8vmbHbv3onTGVx9ViP1Qn5MmjSJTZs2MWXKFD8X9qKiImbOnIkgCDIBl5mZyddff02HDo1Hxc4giiIhISEBG4OfiyRJ5OefID//BKtXr6BbZg/69Rsc1OYJr9dHCzO0SJKE0RhwY4QasVK5YlCFlcr/PIWH15YA357+UiIhPK5zpjEmpZPWaG4naoxJGp0xXqPTx4k6U7hGZ7JoDRZjdFyCQaM14BN0IOrwCSI+ubvAeSNKbkS82GtrcNqr8XmceJ02t8dpc3rdtlqvy1Hh9djLfB5Hoddlz3daK47Zio/udFiLDlHnOnFhio9ahizHp1T707DfYnPxeOW+Y0qUl5eRlbWWfXt3NatZNii78QeiS5cu5OTk8Kc//Yl//OMf9fdqeE9BEPjlL3/J66+/3mirGyWUjG9TUlKJj08gN/cYpaUlMsHpcrnYmrOZ7dty6N69F4OHjGhs5955pVfdHk9jwkqNWKlcMajCSkWlaQqrivcVVhXvW970qYRQ5y4eqdPpzGFhYQmG0KhIoyUsTtBZYvQ6vdnn9Zp0eq1Fa7DotRqdHnxan89r8PmkWgTBBeCx210ut8MhiBqXKIour9NW4nZU1ohee4koCp6aGltBYWFhHlAJVEBz7VR/NhRyrvIhj8eD1+utr0FqDj6fD7e7cWHldDpYt24NW3OyAwqqhIQkOl7VmVqrlZycbNlxu93erB13JpOJl19+meuuu47bb7+dkhJ/26bExEQ++ugjrr766qDnPIMkSYqRNo/HzeAhI7jm2huora3l0KH97N+3mxMn8vzet8/nY/v2HPbu3cWIkdfSq1dfxUiiw+FsVlPvc3E6XWrESuV/AlVYqahcWKynv0643W7KysqgrOznXtPlhCzME8gV3lprIzwscPQkEFarsjfZGY4ePczSJQuorbXKjhmNJrpl9qRXr75ERUXhdrtZsvgbxXnKy8ubFFYOhwOHw+GXZhsxYgSdO3eWCau+ffsycuTIBu/FisFgCOj1dYaqqkq/9jlnOHWqgH+99wa9+/Rn0MAh9OzZh549+1BVVcm2rZvZsWMbDsdZ81uXy8XyZUvZs3snY8aOkzm3O10u3B5Psy0XJEnCZrOrESuV/wlUYaWionIpkamoQDYCNpsds9nUrIe42+Oh1qYsrHw+H1lZa8lav1qWEjOZzPTu059+/QbWF3Pv3buLVT8uw2qVCzCAvLw8v2bbDVm7di3jxo2jtraW8ePHM2rUKBwOB59++ilbt26Vnb9o0SIGDx7MrbfeilarZcWKFSxdupSYmBiWLVtG9+7dA97r2LFjAY+53S6yN65jz+7tXH3NDXTu3JXw8AhGjhrNoMHD2bJ5I5u3bMTpOBvxKig4yexZ73PfLx70E1eSJFFVVU10VGSzTEKra6z4fD40Gg06nU5JBKrCSuWKQRVWKq2KoY8vGookvA3CakH0/eR0u9dueneyGhJqPSjsClSuVZIkibKyCmJjooJKCXq9XsrLKxUL18vLy1m44CuKivyNUjUaDf37D2LQ4OH1USGn01kXtdmzs9H77d+/lyFDhgY8/vrrr1NVVbcXYP78+cyfP7/J95CdnU12tn/asaioiHfeeYeZM2cGvG7fvqadL6xWKwsXfMW+vbsZe+N4jEYTBoOBIUNH0LNXX35c+QN79+6qP79btx6yiBWAy+WmqrqGiPDgivdtNnt9r0AAo9GoJKzUVKDKFYMqrFRaFYIkXCdBT5B6Sj7hcb1G7xs6Y8luBN9Pkk9YLWq0G9a+ccMlsRlXaRFyFdVI5MPn81FSWk5EeFhjHkg4HE6qqmsCFlfn5+fJRFViUjLjx08mIiKqfqy0tJivv/qMysqKhoukYRnb9u1b8XjcaLXKabqm0ncC8KdRo6h2Ovm/rKxGz23MLNXn87F58ybZuMVioXOXTLZv21Lv4A9w6NB+5swuZOKkW0lISKw/d9z4yXTt1p1lPyzBYDBw7egxAe9ps9nxeX1ERIQ1Koyra6x+ogrqhJVCA3I1YqVyxaAKK5VWhQQNm5+JIHVHEroLAjMkn4ehMxafAikHyEEiJ0hHcJVLgzxi1URKyefzUV5RiV6vw2g0otfpEEWhvkjd7nDgcjXuap+Z2ZPysjI2blyHIAj06dOfkaNG+0XCcnOP8803n/ulxADS0zMIC49gx/Ycv3Gr1Up2dnbAqFXy6f6NSu+3X3Iyr1x7LSPS0gC4tl07nlu5km2nTinuQmjTpk3A97ZlyyYFIQhpaRlcc8319OnTj++/X0zu8bPpwqqqSj7+aBY3jZvEVVd1qR9v1649909/GIfD3qQwdDidFBWXYjIZMRoMaLQaBMDj9eJyurDZHYobAwLUWakRK5UrBlVYqbQaBjy2NAx8/YM4NRGEm4CbEMDj03mGzli8R4JdItIuCXGnVhJ2//T22JNNzqRyoQnKx0oJl8vdpIBqjOEjrsblctLxqi6yBtkHD+5j4YKv/SJeGo2GkSOvoU/fgeTlHZcJK4DFixcwcOAgxVTliBEjeP311+tfD05J4S9XX02P+HiiG1gpXN++Pde3b09xbS27iop4/Pvv2VN81pO1YVH7GXw+L4sWLVA8lpd3jKqqSiIiorjttrvZuWMbK1Z8Vx+98ng8LPj2K0aPHkOv3v3qr9PpdE2KqjOcKUq32exNn3yaACahasRK5YpBFVYqrQYd3hEgtOTfrBboIUAP6XRKxyNIDJ2xuEKCXYLEAeCIIAqHvQJH9K7aw6cbQKtceIKusbrgNxYERl83VjZ+5MhBmagym0O4ecrtJCUl4/G4Wb9ujeKchYWnWLbse8aMuVF2bPTo0YSHh9fXWWXn5+OTJJmoOpc4i4Uyu91PVLVp04aBAwcqnr9ixTJOnjyheKympoZPPp7D3ffcT0hIKD169iYhIZFvv/2yPsIlSRLLli3FJ0n06RPMZ5bzJ0BKV41YqVwxqMJKpdXg01Aq+PhIgFGAcp6leUQKMByB4VD3kBEl8GjNDJ2xuAikYxJCkYB08ux/KZJEsUCUfOWSwVex/tUJsmKRKx/ptDgSWuKd1eKI1cXg5Ik8vpn/hZ+oiomJYcotdxIeHoEkSSxe9A0nThwPOMf8+V/SrVumbIeg2WzmmWee4fnnnwfA6/Mx+fPPmTdpEhM7dVKca+727Ty0eLHf2B//+EdF8ZmXl8tXX33R6Purrq7iqy8/5c677kWn0xOfkMi0e3/JV19+Sn7+WUG2csX36PV6MjMDN5a+UKgRK5UrHbVBmkqrZPBjSzNEfCMQpJEgjAAC73u/uLgRpAokKgRJKJcEahGoRsJDnXmnB4EaJMmBJNTnSyQBrwDV58zy5bp/3SQvlLkMGf7E4s4+H9nAQZD2AjkI5NjtbM2ZOa5xEyn4Bph47kBqahrf/7DsYi03INXVlcyb+98UabGMAAAgAElEQVT6Hn4AUVHRTL3z3np/qi2bN7Jy5Q/1xwVBUNx1GB0dze9//yIREZF+43a7nUGDBrFjxw6/8WvatWNqZiadYmKQJIndxcXM3bGDDSf8o0/Dhw9n5cqVsuL1iooKXnrpT5SVlcrWEhUVTXV1NR7P2bTpVVd1YeKkW+pfu90uvv76M7+6K1EUmXzzbWRkdJR/sy4gD/xyOmvXyiKAuwCZn8TIh5ckeHS+65CEmySkqvVvjfvlRV2cisoFQBVWKlcEI5/4Ls3r8w5EYIAk0R/oDQR0I7zcEEW6rHnjpn1Nn/nzM/SxJXcgSJ8oHPICufViSyJH0Oi2NNil+S0w4dyL0tLS+O77Syus3G43H300i+KiwvqxiIgo7rzrPkJC6kRVSUkxc+fM9Itm9ek7gK05m5EUehkmJSXx9NPPEhnpL65yc3MZMmQI+fn5zVpjhw4dWL9+PbGxsX7j5eVlvPbaKxQUFMiuEQSBu+7+BbXWWr755nM/ETj2xgl+ESm3281nn86joOBsqaFOp+PWW++iTSP+XOfLjMceZfly2c/7MNDhllu+0JxKMg0C4SYkrqXu97juOSVQZbcnxObM7NvyQjsVlUuAmgpUuSL46Y0xx4HjwGcAfR7YojPqi3oIIgMkQeorSGQCXblMxZbb08yuwT8notQjQAMdDdAOhHac3jhwepdmBQJ7Qco5tm5224rjW7CXn6wXJ5eqxuoMkiSxdOkCP1Gl1+u5ecpt9aJKkiR++H6xn6hq3/4qrrnmekxGE+vW/SSbt6CggJdeepFHH32CtLT0+vHU1FQ2bdrEzTffzMaNG4Na4+jRo/nss8+IioryGz969AjvvPMmFRXlitcNGjyMpKS6HYQjRlzDTz+tqD+2Yvl3pKamExYWDtSJqFtuncrHH82htLSupisyMoqQIJtLt5SGuwJ1pgiiMvrHdLh6xhenBK5DIlzxQolwo6FwILD2oi5QReU8USNWKv8z3HLLF5qCpND2os+T6ROFTAG6IdEZaAcENkm6BEiCptP6N8cc+DnXECxDZyz+DrjhfObweZzYyvKoLT2G6Crnrilj6N0llXYpckPKC01paTEffTgLp9MJ1EV5br75DjLad6g/Z+eObXz33cL61yEhIUyf/ggGoxGfz8fXX33K0aOHFefX6XRMmDCZMWPGIopndwv6fD7mzZvHq6++yr59ysHJnj178txzzzFlyhS/2jOPx83SpUtYuPCbgF5d6ekZTLllar1QlSSJr7/6hCNHzq6zU6euTJg4xe86q7WGjz+aRUxMPDeNm1TvPH8xKKuo5oWX32LPkRIssemEJXbGEpPe9IX1SC+ve2vcsxdtgSoqFwBVWKmovPiiOLSiTxtJEjJEQWovSWJ7kNKpK5BPBhK42MLLK1y17t0bD17Ue1wg6nzCSLgYc3udVgRnOWF6J8nRejKSo+jWIYkOqYkX9D7V1ZUsWvQNJ0/kMXLktQwYOOTsGrxeZr7/NtXVVfVjEyZMoVPnrvWvXS4Xn3wyh6LCwF60SUnJTJgwmX79+ssK9A8ePMimTZsoKChAFEWSkpIYNGgQ6en+IsPn85GdvYEFC76h6JwIW0MSEpK4Y+o09Hq933hNTQ3//c87uFyu+rHb77iH1FT/+9hstZhM5gu2kcDl9rLr4Al2HjzJkYJqSmokXJoItOaYRg1hg2DHurduuvgV9ioq54EqrFRUgmDkU4tiXG4hQURoIwhSDBKRSERKghCFRCQCkSBFUre7KYy6NHsEoAMa79QLiEgd17w17tDFfRfnz8gXV2m9ZbXPSSI9kOgJpHMJ/o543Q4kRxkm7ESGQJtoM+1TYujSPonk+KimJ1BAknwc2L/PTzABbM3ZzPLlS+tft22bxh1Tp8mut9vtfPnFR5w6Ja91Opfo6BiGDRtB7959Gu0teHZdErm5x8nJ2UxW1nrKyxvv2JSQkMgtt96J2WxRPJ69cb1fSjApqQ1333N/k+sIhtLyGrbvz+VAbgknS+xU2AWcQggaczSCeEErTbyCxCZJYMm6t278Wwt3pKqoXBJUYaWicgkY9OQXJo3DXF9c4hJdol6vr68lsdcmnGiNRbkDHlsaphO93SXoiUQPQRB6ItGNS1jL5nM78Dkr0Et2Qg1eokO0JMeGkJYcTce0BBJiIoKeS5IkZr7/DpWVZ2uYpk69l5S2qYrnO51OFi36miOHg9PEoaFhpKenEx+fQFRUVL31QG2tlaqqKvLz88nLOx6w8XNDMtp3YMKEKeh0+oDneL1ePvjve351WVPvnEZKSlqT87vcXg4cK+DQ8WLyiiopqnBS5QCnZELSh6MxNPmZ4XwoEWCZJAlLXD7nMrUnqEprQRVWKioqF5SRL67SuqtqrhJ8mh5I9BCgp4TUA4j/Odbj87jwOaoRfbWYNG4seomIEC3xEWYSYsKIiw6jTUIkCTERHDt2hC8+/6j+2tTUdG6/455G55ckiQ0b1rJ+3WrFFi4XA0EQGTFiFP0HDAkqfbdj+1a+/35R/ev09PYMG3Uj+cXl5BdVkl9STWmVg6paH1a3iAcDPq0FrTH8fFN3zcEnIOT4BOk7AWHpusjNm3nxxUvzDVVRuYCowkpF5Qph2GOL/4go1ODzrddEh2z96cVRnqavunQMe+L7RMnn7VFbfORGj6v2Jn1IVKIxLN5wgVNGLUbyeUmwrSHUd7aWqVLbDvTRmA0iFqOOUIuOMLORiDAjEaFmIsMthIcYsZjN2KyV/PD9IgoKmmer0FzatGnL6OvGEhMTR2l5FdW1DsqrbFTW2Kiy2qmyOrDa3NTaPdjdXmqdPpwegWTfTrQ46+c5GXI9DrFladQLgiThqClxuW3lB82xaa8L3tDFWf++vrjpC1VULm9UYaWicgUw8sVVWk95bTkQenrIhsA2YB0+aT0eYd3laECa1OcBs87kuV5rMI/QGUL76kwR7YxhsTGGkFjdJYyUAKCRHKTVLECgLkjiEYzkhkxAEoK3g/B5HIS4TxDt3o+BC9sVySmEUqrtRK02CVHX/A4wEa4DxDi2AnXvrczYhxrdpfHV9bhskrOqsNpVW5brtlfv8LrtP2rwLT7400y5w6mKSitHFVYqKlcAwx5b1F8ShOxGTvECB4B1CNJ6n0dcnfXujbmXaHnNJqnPHTFGk2W0qDf11+jNmTpjaDudJSLOEBJn1hrMF+XvVqjrOHGODfV/FCv0XSgz9mjhbBImTzFh7sOEeAoQpJYFDyVBi1WbQrUuHbs2jvP5ky1IHhIcWVi1aVi1bZolGIPF7ajxOauLa9y2ylMeR/Uhj9O+GZ/zxyNrP1h/wW+monKZogorFZUrgCEzFj8twD+aedlRJGGdIPrW+UQpa3341n2toaal7YD7umgMmlE6naWXqDe11xpC2uhMYTE6U0SI3hKpOZ9Il9ZnJ8RzghBPLkXGgbjF0KYvagIBLyZPMSZvCQZvOXpvFRrJUR8ZO4OEiEcw4daE49REYNMm4NDEIKEJMPPPg9tR7XPVltvd9uoyr8Na4HHbDngdtmyXy7riZPYnl/3OVhWVi40qrFRUrgCGzliyEKRx5zmNFYEdIOUAOZIo5ax/ffyeC7G+S0X8dXdbjLW6/lqtoa+o03fW6M1pGp0xQaM3RemMYWFaY6hBZwq/tFbvCgiAKLkQpTp/KZ+gwyv8rB61AEj/396dx0dVnf8D/zxnsodNXFFUUNxIggvuonWv69dvfy30WxcStEptK1UUwiLJCYIkQbHFVotVk6BWG+xitXbRihZ3iwtJQC0quOEOJJBtZu7z+2OCRWWZe+fO3Jnweb9evOjX7z3nPEwmM88995znRCMId6yLdneub492bFwXjXR8Funa+K4T6Xg92t2xNKKdz7z3zAPbri9BtINjYkXUC/QkVmfC/0KmaxR40QheVAcv5nXlvvT4HWes336z9DXsmIv6Odm5IyDZxSY7tK8J5Q6WUM6gUFbuzqHs3AGh7Py+odyCgqycwpxQbkHIZAWf8CTCiXYj0rEhGuna0B0Nt2+Mdne2RSOd6zTS9Xkk3PWRRrtXO5HON9AdWfbOi13NwKItl3YnorgwsSLqJU4uW5wX6b/hSMCMAnQUFMcD2Gm7Dd1RAG9A5UUIXlSVpdnRDc1P3jbG35XaaWTwcdfkw/l4cFZO7p6C0N5GsnaXLNkVkr2zMVn9xWT1EWMKJBTKhZhCY7KyJJRVKDAmlJWbr7Lpc1bFhLJzxGT993NXVSDfLHYZ6W6PiphwzzVwIl0dgKgT6doIEceJdLVBxHG6u1oVTodGI+tUo59pNPpJNBL+WDSyJhzt/ggbIu+/37JoywcLElFSMLEi6sVGXfPIfnB0FFROADAKwPAkDbUG0KUQaQF0uRpduuf7na8vWjSGsx9EtENhYkW0Aznx6r8N0mj4SBg5AYrTARwOIFlrjroBrAR0KTSWcGVFzUtP3nbu1g+9IyLKcEysiHZgp1/xWP+u/K5j1ZGjIDga0KOR/ArpHwH4DyArAX1LRVeKysosE37ryZ9/Z12SxyYiSiomVkT0FaN+9vA+gBwjiqMd4GgBjkAcB0n75DMAbwmwUqErRWSl45iVERN+54VfXPBximIgIvKMiRURbdPo0Y2hDwfnHSyOjAQwEpCRUBwJ/3cgxmMtgDUAPgR0DUQ+hPb8DV0DIx+u7d/+fosd0x1AbERETKyIyL2RVzxckJcbGiHijBBFiYqUADoC/u9C9Eb0E6h8AuBjAK0CtDo9f0PRBsHa2H/TVhG0CpzWkOS0Rrqi65++/dx1wDd36hERxYOJFRH55qSJf9o7GgmViJgRgI6AogTAQQCyg47NpTYAm86hWYdYmQkAsgHQWBkEQScUHQAARRSC1q+131bZdgEwYFsBCNC9ZP5553qInYgCxMSKiJKqyDbm7PR5/iFipERVSgA9AJD9AR0GwP1pwjuOj56ef96goIMgIneYWBFRYEZd+chOyMZ+EOwHp+dvQREURdjOjE5vJ8DnS+aft0vQcRCRO0ysiCgtnXjVo7s6wP7GOMMA7OMo9hBgEIA9EPt7EHr3jFfb0/PP6xd0EETkDhMrIspYx1z1aD+j0T2zQ2Y3Bxisju5mBHspdHeB2V2hO4uivxrtB5V+APKCjtmFzqfnn5cfdBBE5E5W0AEQEXn1wq3ntAJoBfB6PNcX2cacXdvy+0Uc6YcodlKgn4H0U6AfgH4Kp5+I9AcwAPrljed/dzqK9oHKpoX4eQA2JT4hxPrYJBdA19Yj0XBsIfyWCcRRVZ7xR0REREREREREREREREREREREREREREREREREREREREREREREFIAzr/t7YdAxpMLo0Y2hE3760J4nly3OpOKnRL0WK68TUa8zenRjaM2ggnYAGxS6WiCrFFglKqsA5x0nZN6TSOSTzu69Pl16x5HhoOP9JpUTr/rrLhJydnFUdxbBLk7U7C7iDILKnhDt+RuDAOwOwDiq33721vP/EXTkRDs6Vl4nol5nzeCCfRFFDoCBAhkI4HABAFEAAuMoYELIz/sIoyY88gWATwB8CuAzCD4BsE4VG0XQDkWbAK2OoF0ctBsj3Y7qxq+PqSGnU6NGTKzqOmC0L6KSBQACHaBGRFT6O6p9IOgrkD6ADgDQD4K+UPQHsAuAnYG/7KKAqNPTWgHpiT12OyzfuC02kMH+v5JE5BYTKyLqdcTBARr/5QN7/hwMAOhpKJv9b8WXORkc3XLPEjVfzXWc/yY/CgEUUCjky4s268dFsFslsrcPvRBRgkzQARAR+c2BHhB0DCmnulfQIRAREysi6oUE2PESKwFnrIjSAB8FElHvo+avgLYJMEQFQ6AYAmAQesfNZDuA9wF8DOADEXzkKD4AdHnAcRERuCuQiHYQRbYxp9/63H1CkdAQiAwCnF0Bs7uK7ibArlDsCmAPADsB6JuSoATroWgD0AagFYLP4MjnEHymcD6DyCdG5TM48lkE0c9NgfPBM7UXtKUkNiLyhIkVEdEWnDD5ob6RLhRkm1ChqA5QRQEcyVPRHBH5Zo0sR7IUjhEj3QAAlTaoRgDAMc56o8ZRCW1wTGSDEwm1vXDrOa2p/RcREREREREREREREREREREREREREREREREREREREREREREREREREREREREREREREREREREREREREREREREREREREREREREREREREREREREREdE3SNABEFH6mHdcY37XhnCemzYDczZsGL90fDhZMRERZZKsoAMgovTR3bbxegOZ5qZNa3feGQAeT1JIREQZxQQdABEREVFvwcSKiIiIyCdMrIiIiIh8wsSKiIiIyCdMrIiIiIh8wsSKiIiIyCdMrIiIiIh8wsSKiIiIyCdMrIiIiIh8wsSKiIiIyCdMrIiIiIh8wsSKiIiIyCdMrIiIiIh8wsSKiIiIyCdMrIiIiIh8wsSKiIiIyCdMrIiIiIh8wsSKiIiIyCdMrIiIiIh8wsSKiIiIyCdMrIiIiIh8wsSKiIiIyCdMrIiIiIh8wsSKiIiIyCdMrIiIiIh8wsSKiIiIyCdZQQeQTuaU3LdTVjR6oIai+wAodFTyRaQfACiwThx0Qpw2qHk/GsVb014v/TzgkNPO3BELC+Ho/o7qEDXax0D6qKIvRLLgOF1ipN1xtNUYtEaAt/t0tL0zYeWErqDjTicW1uQV7TdYJbpfSLArHNNfDfIAFKqjagzWOSrtotqqircKultX8jX0TGbNmrVPJBI5QER2UtX+AApEJB9At6puFJG1qtoGYOXw4cPfGTNmTDTgmLdq/vz5uV988cVBIjIIQL+ef08fEclV1SiAVhHpUtX3QqHQe9Fo9D1rbWfAYSedtXY3Y8xeqjoYsdelUERyART0XBJR1TYRCQP4RFU/APCRtfajwIJOc9XV1f07OzsPEJG9ART0vKb9ARhVDQPYICIdqrq65732gbW2O+CwU0KCDmBztUX110BwUbzXq2BJeVPZNV7Gmj9sfm5n/oBjHTini+qJgAwHsKvLbtYDeAOCZ+HIMxHHPDN9xSVrvMSTiW45rG5AOIrjHchxBnK8qg4HsIfLbhwA7wNoEsizjujTOX0KXpr43JgO/yNOPxbW5A0fcogJ4QRHcYIBjlZgKIBcF904AFYr8DIUi0XME+XNY1d4iae6uG62QKa5aWNEzpjUVPq4l/E2sda+ACDkoslPrbXPexhnDxE5RVVPA3AUgAMA5LvoogvAmwCWicjfVfXv1tpP3MbhB2utMcaMVNWzVPUIAEUA9oO71zEKYAWApQCeB/CotfZd/6NNDWvtHgCOBDACwGE9fw+Bu9+nzbUCaAbQBOD5rKysf15//fXv+RBqwqy1ZQB+6qJJi7W21MtYc+fOLdy4ceOJAE4BcCyAgwHs5rKbMIAWAEtF5LmsrKxHp0+f3iu/L9MqsaopqrsZIhNdNHmkvLns/Hgv7pkJOAPiXC7A2fjv3YpvBFjqKBpDIbNo0rKx7/jdf9BuPLhhZxPSc0UwGsBZSM6sZxeAx1SxCHldD01ZOn59EsYIjEKlprjuOEDGAPI9AfZKwjDvqmChUdRPbi57K95GASZWYbh7L33bWvuPeC6cM2fOTl1dXZcAKANwuIfwtsUB8IqINOTl5dWXl5e3+dz/VzQ2NoZWrFhxnqqOBnAm3N8MxuNVEXkgOzv77mnTpn2ahP59M2/evPy2trZTVfV0AKcDKE7BsG8A+EMoFLpnxowZnm5g/GCtnQJgjosmL1prj4n34rlz5xa2t7d/T1VLAYwCkO02xu1QxJKsB7Kzs+unTZvWa54A7RCJ1dwRCwsd1Z/C0R9BMMR7hG7pUyrmls6mdx62sE7qxvWXQqWm6J4zRaLXAHI63N0RJ6oTwO/FOPMmL7v05RSO67v5w+7t154f/aE4elUK34cK4Emo3FDeUrp4exf3psTKWnsggOsBjAaQl0B48WoFUAdgnt+zPtba3UTkMlUdD2BfP/vehi4AjQBmWmtXpmjM7bLWZiGWRF0I4H8B9A0wnBdEpKaysvJPiP2upUyyEqsbbrjhgGg0OhnA95G617YTwAOhUGjWjBkz4r4RTFe9eo3VgpELstd15VzmOE4FgEGpTyPlW6L6rfziIf+pRV11e/Pq+kxKsCysKSjZd2wtGq4TRVFAeXgegIvUMRfVFtc/qdAby5vHPRZEIF7NKblvp5CGp7UjcoUo+qX4ZRQAp0D0lOri+sdVddrUlnEvpTSCFLPW7gmgAsBlSO1nXD8APwNweVVV1SxVvTnRNSU1NTV9Ozo6pgG4WlVTkRxuLhfAJQD+z1q7AECltfaLFMfwpRtvvHHn7u7uKwH8BO6XHCTLMar6B2ttE4DJ1tq/BR2QV7Nmzdo7EolURKPRMqQ+N8gDUBaNRi+y1t6Rk5NTmckzWL12V+Cc4Q2Hr+3KfRWQ2wEMCjicAxRyV37xkJdqR9SdGHAscZlTXHdyfvGQpapSB0VR0PEAgAInA/KP6uL6x+aOWJiKKf+EWFhTXVQ/1mj4dQWuk9gXb2AEON2IvFBTVL/Ajlzg+2PwdFBVVXUJgNcBjEdwN44FqnojgNdmzpwZ96OXzTU2Noaqqqou7+jo+A+AKUjNjNvWZCO2lmdZVVXVGakefNasWXtZa+d3d3evBnAD0iep2lwJgL9aa++z1rpdexQoa62pqqq6NhKJvAnghwh2wiUbwE+6u7ubq6qqzg0wjoT0usTKwprq4vrrjNHnBRgedDxfc4Q68q/qovq6moPuCnL6eqtuOvC3u9QUNzQayGLEFn+mHQFOdxzn5dqihjm2qDEn6Hi25Kaiu4fnFw9ZKoIGuF/kmUwCwRV5XbkvzRne4Pd6o8BUV1f3t9b+VlUXIthHQ5s72HGcJ621F7ppNHv27N2XL1/+d1W9A8DuSYrNi716FuvfgBRMX8+bNy+/qqqqPBKJrABwFYDCZI/pgwsBvOI1oU41a+0+AB5X1ZsQbPL+dXuo6iPW2lsaGxtTufTEF70qsZp3XGN+QfGQPwkwF0BafuECgAjKkB16eU5R3VFBx7K5mhH1p0Vyul8FdHTQscQhW0WnFEj7szUj7joo6GA2V11UPzYq5kWkaWIKAAIMN0afqy2py4Sf9TbNnj17987Ozn8B+EHQsWxBHoB7e5KR7aqqqjolHA6/AuC05IblmQC43lpbv2DBAr8XM3+pqqrq/NbW1tdVtRrpkyjHa8+ehHpM0IFsy8yZM48C8G/Edvqlq6uXL1/+e2ttRs2w95rEqnrkgv7htva/KRD3LsGADTMiz9SW1JUFHYhCpbqk/gY4eCxJO9SSRoGRcEJL0yFBsEWNObXF9ff0zFJlwt11rqrcX13SMD7oQLyaNWvWvuFweAli2+rT1aZkpGJbF1VVVV2mqo8h+KUL8Ri7Zs2ae621vn6HWGvzrLW/UNWHAOzjZ98plgfgt1VVVd8POpAtsdae5TjOYiRnV6nfLgDw8Pz5872WzEi5XpFYzSm5byfpzl0M4KSgY3EpW1Xurimunx5UALaoMWduccNCUVyPNNsl6kKhqvyuprjOBhVAzUF39c2X9kcUuDioGDwKieqva4vrrgo6ELestbtEIpHFiNWiygTWWjt2S/+Pqqqq8ar6G6R2x22ixgC42a/Oenb7PQ9gAjL3s2hzIVVdaK09PehANldVVXU2gD8jM27+Njn1iy++uMfvRD5ZMiLIbbEnL84SDTdCfa9PkyoCYFZNSf0tqR547oiFhQWm468ZmAxsiQBSWV1UPy/VA1ePXNBfskOLAaR8Ya9fFPLzucUN3wk6DheyAPwOsWKqmUIA3Dlz5swTNv+PVVVVV6rq7cjMZOLqrSWLbllrIwCe86OvNJID4LezZs1KiycB1trhqno//K9JlQqjEdvtm/YyPrHK/3T1LRKraeKXzwG8CuhTAB5T4HEAzymwHLFaG8mhuDqVM1fzh83PdRznj6p6apKGiAB4W4CXel7Dx6D4p8QqPL+HJNV8EcE1NcX1s5LR95bYIXV50pXzkAIjkzjMFwBeBfAvfPmelGchaAHgV4V640DvA+Ron/pLthsA+P3eVSS/FlG24zh3bnqsUVVVdYqq3orkJVWpKO9yq7V2iB8dZWdnWwDJKLLaCuA1xGZqGgHcsdmfuwE8jNhn09okjL1rJBK5B8EnzgMQ+/f3T0LfqSojdL21dlSKxvIs6B/0V7gtEKpAa4Jb2B0B/qWiTziKJZCc16Y2XbTVX6yeQpl7C/RoFWeUqJwNwYEJjP+NIUTlisktpXf62Oc3NI5uDL29ov13AnzXx24/AvAXqCxBKPL8gOzI2+OXjg9v7WI7pC4vr9A5SJB1AsQ5SSFn+1mOQBQTJ7eUJXUWsOd1XCSAnzM9URF5Co4uhjFLoggt29Z7EgBqRtw7GBo+Eg5OVJGzUr0bNqACoV5FEZsVeU5EXlLVdwC8O2jQoLXjx3/5fhVr7e7GmL1V9WBVPRqxm7eDfYyjCrEv9ZeR+M6/ZgBLROQlEXnTGLOqoKDgi4kTJ36ZdM+ZM2encDg82HGcAxA78uVbiB1N4tfN9T/9euRVVVU1XVUTuTlaD+BJAC8CeDEnJ+cVNzWReuo5HYNYZfsL4NOuXhG5uLKy8j4/+gI8FQhN1Ovo+b0B8KYx5t3s7OxPpkyZ8uXJGD2Pc3cDMEREDlLVIxG7AfLzd+cdAMPT+YzLjE6sEvCuArdKOPrb8jcu+zCRjuaU1I80DsogGAd/nlmHoTKqvKX0RR/62qLa4vq5ClznQ1cRQH8PI78ZelDBk2MWeT+c1g6pyysolHNV8BP4s0tFBfI/k5tLH/Ghry2qLamvUEWVT929JZBbw+h+YHrz5R8n0tHc4oYRjug4KC5DCnZUZUhitQzA7Tk5Ob/3ekzLzJkzixzH+RFiR+P0STCeLsTOTTvCY/s1AH4dCoXunzFjxn+8dDB79uxBkUikTFV/An82rZxrrZlfraEAACAASURBVH000U7mzZuX39ra+gaAvV00+wjA/QAeGTRo0JLNkuSELFiwIHvNmjXnApgKINHZ3PcBHGStbU88spQlVu+IyG9U9ffW2je9dtJzCsJlPX929iGuqdbaah/6SYodKrFS4AMopu2U13X/tmZTvLjx4IadTZYzUSATkXg9kLc1t+uIZJyRV11Ud76IPITEfvYOgAZjzA3JOA+xpnjhkVCnGpLwlvMvVM3hU1rG+n6obO2IuhPVkcVIfLHxWwpM62xe9aDfVfnnlNy3kzjhq0UwCe4OGnYlzROrJhGZVFlZ+Xe/Ouw56LcGgC9ri1z6BMAMAPWJVnXfxFqbB2AyYslDIp9dzQAOtTbx93HPuq2G7VymAB5FbObv0Z41WknTUz7hF0igQKmITKisrLzVp3iSmVi9LiLTVPUhP36em/ScJDAVwER4PxgbAFpzcnKGpetZljtKYuUIMK9dC6psy5gNSej/S3NK7t7PqNwGyLcT6UdUfju5pfQiv+ICgJsOuXPfaCjrZQADE+hmGVQuT+aM2iY1RQ3fg+ivkNhU/HMdu+x7kn3yFN8+dG85rG5Ad0SaAAxOoJswRG/oaMNcu2pcUqe05xxWN8SE5TYIzk5G/2maWIVFZEbPsTJJ+cKtqqoarap3IXV1lu4BMMFauy4ZnVtrDwPwIID9vfYhIudVVlb+xYdYDGKP8ra0dlEB/AVAlbX234mO5TKuXQAsAnCyxy5WIjZr5UfymYzEqhPAdADzk5mozpw583DHcR4AvC+lERFbWVnp1xMDX2X84vU4fAzoWZObyyYlO6kCgKlNl749ubnsbEAnA/A8K6aiF9aMqPe1SGA0lH0bEkiqBLi9Y4Mek4qkCgDKW0ofjERDh4nIEwl0c1ze5+9O8C0oAF0RWCSSVClWGcecWN407oZkJ1UAMPXVcasmt5Sei9jjX19natPUJwBOrqysrEnml0NlZeUiY8xpSM6C581FAFxurR2brKQKAKy1r2ZnZ58AoMlrH6r6Y59icRCbRfu6lwEca609P9VJFQBYaz8bOHDgWQC2eQD4NgxDbO1WOnoLwDHW2nnJnv2rqKh4BcBxAF7w2oeqjrfWpmUh8N6eWL0jwAmpPrRXIFrePG4uDM5GAjtc1MH8BSP9qW5cU1L3v4Ce4zUUFbl2cnPZj1ORCGxu+opL1gw5OP9MAJ4X9IuqnXdogy/bnW8qunu4QDx/eQiw1ITMMZOWj/X8geJtXNHy5rKbHXXOQnJ2XaWLD0Oh0MnW2mdTMVhFRcVLxpjzAfjyWG4LugGMttYmdUPLJtOnT/84Ozv7DMR27npxll87BK21TwDYtEayS0SuHj58+NHW2pTc2G3NhAkTuhDbsOI1AfVz05BfXs7Ozj7BWrssVQP2HOh9JmKPkL0YJCJpWSKm1yZWCiyPIHzc5Oayt4KKoXxZ2T+NyLcBeJopE2D42s7cKxKNY95xjflQ83OPzR1AS6c0laa8PtQmYxaNiU5uLr1CBL/y2EXfSAS1fsQSEXMLPNeAkWc1HD1l0rKxn/gRixdTWy59AkbPhMf3ZJprM8acNWPGjBWpHLSiouIZANcmoWsFcJm19k9J6Hurpk+f/rEx5ruIzZS5ZUTkAr9iCYVCkxF7fDaqsrLyF2PGeN8g4ydrbXsoFPo+YpsQ3Do/zQpdvp6Tk3Pm9OnTE9o044W1thWx01I8rSdW1e/5G5E/0umH6x/Bh1nRyDmJ7q7yw6Sm0uccdS6AxztaEUxJdNYq3NZ+OaD7ehpfcV1587h7EhnfDwLR9qZVEyB40Et7Ff1B9fD6okRimFNSP1I8TuMrsDxbw+eXv3FZ4LNF5cvGPZ/IezKNXVxRUeH5MVaCbgPg9yzZXGvtvT73GZeKioqXEFuo7Zqq+nasWE+SXBTEY7/t6YnNy2u0uzEmmXXv3PgCwNluylH4zVq7Ct53qX87HY+66Y2JVTfUXHDdih+uDjqQTaa2XPoEgEkemw9e253j+Ry8WFLmeUPAXcmuBeWGhXWy+xSMhbepY5GQev0ZAACMx1kJBVoN8D8TW374RSLj+2lqy6VPCGRLa1gyVb219s9BDW6tdYwxfpQw2aRl4MCBgVaZzsvLuwGAlzVdJ9XU1Pi2oN+v3Y9JMhceivT21EZLB1f2JDaBstbehVgRZLf6rl279mSfw0lYr0usVDGjvHls2t3dTG4uvRWxnSyuiYrnxwzrOvMu9DhbtRLh6DVex02Wic+N6VAH/wcvFcdVLrzpkDs9zdxVFy3cBwpPCa5AfxrkI+mtmdQ8dj4Ufw06Dh+sRXIexblSUVHxHGKFKRNmjLmyZy1PYHoKP/7SQ9Psjo6OdJmRSSpr7WeI7RJ0RVWPSkI4bv3JWtsYdBA9FPBWE1BVj/c5loT1qsRKgKWdLatuCjqOLRGIRqKhy+FtbcsR1SV1Jd4G1h95aibmh+nw2GpLpiwva1HFXA9Ns6Oh0DgvYxrRi+GtHMBj6fAodUsEotlZcjmAjUHHkqCbehbCBk5E/Fhk/teKioolPvSTsKysrDvh7ZifI/2OJV2JyB88NDvM90DciYRCoWkBx/B1f4a3TRPpkKR+Ra9KrGD0Gr+LLPpp+opL1gC40VtrGeO2RW1x/f4AjvEw1qLJTWOfct8udXL6FVTD0y+hXKxQ1/XbFPp992Mhog7SbtZvcxNfK/0A0LS8GYnTBnibVUmKgoKCPwFItLJ22lSUvv7661fD29qxHSaxysvLewLuz8rzNHPuo/tTvclje3pKbNzvoSkTq6RR/HXysnFpcZe3Ldl9C34OwHW1WHHgOrGC4gdwXwRWAal0PVaKTXxuTIdAvcxa7V9dVO/qQ79mxF0HARjhdiBV3DtleVmL23ap1qGFN8HbWpp08LuenUVpYdKkSRsBPJNAF29aa9Ptc8xLzaYDfI8iTZWXl7chdo6eGwOstb6djerBbQGOvS1elibsYq1NpOi173pPYiWaNoust2Xic2M6VHG764aCA3u+4OOmIu63oir+Vt48Nq3uZLamXQvr4CEhMG7ryDih89yOERP1WuIipWKFc+U3QcfhUSC75rZFRBYn0PweeHv0ljTGGC//Hjfn/PUGrs9rNMYE9RqtsNY+H9DY2/MsPKyfNcYEPQP4Fb0jsVK8Obm5LKEjNVIp6oR+DcB9PRYnNCreS288uGFnQF2vy1Ko+6QvILZlzAaohy9WkW+5bBH3676ZZ6a0XPaah3aBMEZuR5p9ocehddCgQYnMDiWLl91NAABjTMLHwfgtNzf3Vbh/b+wyb968pJ1PmYZcL0twHCdVRyF93UMBjbtdPTtAXe/6dhwnrRL5XpFYKfCAQDLmSyG21kqf9tD0hHgvDGU7J8L9z3ddQVeb16MaAqHG/Y4cAEfaosY+cfUfW4/lZddJuuy2icukZWPfESDtdtNux+Pjx/t7mLofVNVrLa2PKyoqPCdlydLzqMvtQeayceNGz4cVZyDXj6NFJKjEM913Aru+IRURX07W8EuvSKyAqJddGYES4PeuG2n8iRUcnOi2ewEembAy2C3ebnU2rXoasbPh3MgqNB3HxnPhnEMXHgAvh0CbrIx7TzqimRbzS0EHsBUfwtuZjP9G+s4auq4LqKoFyQgkHYmIlw0LQbw+UaT/DZSX91phMgLxqjckVms7W94LqtqyZ2JC7tctCPa3RY1xHjoph7ruXyWtdwJuSWwXqLie/YvGuRjdODjEfVRYWb7s4vc9tAtUCCajfv4i8krQMWxJz+4mL8cWpeW/p8caD212mMRKVb0kxEEcILzcWpvortWkEpEPPLRJq8fOvSGxejadSyxszXXLLmlB7DgBN0IFzsb4FumJDHMbk0E0JQfX+k2hz7ltI+rsH+el8V73JfX/aJOUyO1Y/zKAlB6ynQhjzJtBx7ANrutqiUiv+vdgB0qsMojb3Yspp6quj9dJt9lRLwUP003arUmIh0C0FvXLFDjZVUOD/bGdHSjzh83P7YC6XczXtaHl3bT/pdsSgb7mvqqExLUd3ED3c30rKpIxi9Y3N2HlhK6akvoVUBwedCxx0P79+38YdBDb4P5kACCdZzldJ9yqmvIZmblz5xZ2dHQc7DjOISIyVFV3BbAHgIEABvRcVgj/Z4sGbP+StOB2rVwQvNzcBTH7t1UZn1gJ9O2gY/DKgbwt0JPdtFHBkO1dsyG/79CQup2NlFWZOPMHAAJ528M8/H7xXKTqvpCfwMnY96Qq3hZkRGL1WdBHvmyH69hU1fUjkBRKy5nM2bNn7x6JRM5U1ZMAnLhx48YD0XOX5e3pXK+Xzsn7Jmn5XnMj4xMrVfNO0DF4ZVTfcVsDXFW2W1QuOxrq7xiXOZJoxr6O/XO73l3XlevA3aPteO8wXRfxEwer3LZJFwZ4J0O+jtLyuKXNeLlJ8XLcVaqkzU2XtbaPiFykqt8Ph8MnAQgFHVOmEJF0/72BMUYdJ23ebp5kfGIlcNYGHYNXDrDW9dkqsWnsbfeb5fTx8DGYsa/j+KXjwzXF9RsBuKkLE1e5BRfXfclBKC3OrfNCM6cCe8bf1X5dbm6ul8eHOwxr7S6IHbY9XlV3CjqeTKSqfI+lQMYnVnAy9wBZY3SjupyyEuh2v+hVpY+43bWtmfs69nCbWOUuGLkge/zS7dVBkkK3O+CzwllpvetmWwSyQdN2x/9XpPNjQE+ysrK6g44hHVlrswD8GIAFwIQqASLS635v0lHGJ1aOCWXuG0VNh9sv7Xi2lRpFntuvRpGM/6JyfSfWtb4wH9urN6Sa63ZdfFQ6Mve1FO3IjLwqQ6J0YePGjb3u35So2bNn7x4Oh+8FcHrQsRDFK+PLLRgnmht0DJ6J47r2hgLbnQ3xMt2rijy3bdKM6+22Xwzea7uvpYj7R04hzc/Y96Q66bVtmXZc1tojw+FwE5hUUYbJ+MQKZvtrjtKVwrhevwPo9he4hjw91svY17GH2/g77ZOnROK4zv1rGWrP2NdSIB7ek0T+mjlz5gkA/glg16BjIXIr4xMrDcnOQcfglUAHemi2/S/6qPudHxqr85KR5g+bnwv3M1Zx7cDSeBLZr3GyTca+J50Mfh9Q72CtHeI4zh/hYUcuUTrI+DVWEpWhQcfgleNgqLhcvyMi67d7jeOs1ZDbRfHx1XVKRxsK++8biqrbm4T4dkGKrHe9midqhgJ42WWrtCCCjP19osy3YMGC7DVr1vwR/s1UrQGwDMByxHa8buj5s05EfFvTpqrfAfADv/qjzJbxiZWKZmxCIOIhmdHt10hqN4Wr89Eehbv6Lvs0jm4MjVk0Juo6poCZiAyF289IwVtxXRfH6/2NJhn8nkQGJ9iU+T766KPrAByWQBfdAP4G4L6cnJzF06ZN+9SfyLbNWhvXSQ60Y8j4xAqSEVWiv8HCGgDuD0rG9hMC2zKmu6a4fjXcfUnmvL28rRhAxh3HIuIc4baNqmzzWKAv+4a87br8gEhGvifnHdeYH25rPzjoOGjHdOONN+7c3d09zWPzDgDzcnJybpk2bZrrs+aI/JT5iZXiWAtrMu04lryivUsA9HfZLNo/tyuus54UWOn68Z6EjkcmJlbAcW7n9E0cCSoAOOq8LW6f16oc7zKctNC9of0oSbMzt2jH0d3dfRU8FOQFsBLABdba5T6HRORJxi9eBzAgd/hQLzM/gRIJfct1G+A/2y9o2XOt6ivu+1fXMQXNnrw4S4ET3LaLwokrgVSjLe6j0n3njliYcWuVMvHnT72GACjz0O5dAGcwqaJ00hsSKxij3w06Bg9cx6zA03FfK7LEbf+AnDvvuEbXtbWClP/ZqlPgfidbV27fwhfiuXBq06VvQ/Ch27iijpN570k1mRcz9QozZ84cBbg+8DwC4Fxr7Sr/IyLyrlckVlCMVrg9zjg4sw+5ZxA8zLJA8Gzc1+Z2PQ3A7UL0PuG2jWe7bBMo8ZCgAnhp4nNj4i+iqvKM2wEEGO22TZBuPLThQEAzbuaXegdVPdVDszustc2+B0OUoN6RWAkOvKlk4WlBhxGvkIn+CB5OZI+a+L/gpywdvx6A68eBUPmx6zYBqR65oL9CLnTdUGWxm8sFcJ1YATi6pnjhkR7aBcJEnYz5uVPvo6rHeWj2K98DIfJB70isADiKa4KOIR7zjmvMF8GV7lvKG9NeK33TTQtVLHI/DE6bW9wwwnW7IHTlXg53By8DAIzgQTfXi5E/w8PZdKKaEe/JWw6rGyCQS4OOg3ZoB7m8/j2uq6J01WsSK0DPqR1Rd2LQUWxPpK3jGngofqeqv3PbJluc+wG43i2p0Flu26RazUF39RXgWg9NV0xqLl3mpsGkZWPfEeDfbgdS0e9nQpLaHcYUeEhQifxgrc0CMNhls6XJiIXID70osQLgyM099aHSUm1R3R4KneKlbShkXM8+Xdt86XtwseB9EwXOrymuO8Ntu5TKMtMB7OGh5X1ehlPAdWILIKSCW7yMlypzDqsbApGfBR0H7bjy8vIK4b70z2fJiCUBw4MOgNJH2iYhXihwVF7J0KuDjmMbfg1vMwMvT1o21tMiTVW93Us7QBbMH3ZvWp7VVTvi7iMg4uUxWxfC0TpPg4aj9yNW1dkVVT21prj+Mk9jJpmFNSYsdwLICzoW2nFFo1G353wCQJfvgXhkrR0G4PtBx0Hpo1clVgAgqjfWFtUlciRCUtQU1/1IRS7w0lZFb/Y67n7DCxchVkDPraEdedFfeh03WeaOWFgIx9wHL4UsFQ3lb1zmunQCAJS/cdmHEL3fS1sAP4/tuksv+cX7XgtBxmz6oN5JRFzfsAAY5Hsg3k1Fbyi2Tb7pdYkVgFxH5JGbi+/eO+hANqktWfgtQH7usfl7O+V0u1+E3mPMojFRFbnJW2u9pKa4bpLXsf1mYU3Uce5RwMuxK1Fx1OPrEGMkdBM8LGIH0CcU1Ufnjli4WyLj+6m2pO4cQG4MOg6i7u7uNg/N0uLzfebMmccBGBt0HJReemNiBQH2iiD08LyiO90WjvTdnOENh6s6DwHI9dSBSG281da3pqBjfT2AuM7G20IANTVFDaWJjO8HhUpB8ZBfCvAdb+2lYfKKcR5fg5hJy8Y2C/CIx+b7O47zUDo8Xp1b0nCcqjSCd9mUBqy13XC/Zurw2bNn756MeOJlre3jOE4D+HtEX9MrE6sYPTQsWU8HOXNVW7LwW8boYrg/E3CTFQNyOhckGseElRO6BPipx+YC0bqa4novO/B80Ti6MVRb3PAbhZcyFQCAtSEjU30K5xp4X99xbEde5Jmag+7a06dYXKsZUX+ao/p3AIVBxUC0BW5LJ2SFw+Eg1zUJgAUADggwBkpTvTixAgAcEoF5NogyDNVF9T9Rdf4O70kVAP1ZorNVm0xuLvuHAn/02FwA3FRbXH+bHVKX0oXOtUV1e6x6veMfALwvABepmLRs7Cd+xDO5uewtEfwigS6KkRV6Zu7whcf4EU+8FCo1xfXXwsFfwdIKlH5clzMBcK21NogZYLHWLgDgvjgx7RB6e2IFAIPVkSdqiutsKpKCeYc27FVdXP8HEfwSXh//xTSWN497zK+4ACAnJFcB+NRrewWuzO9jnk9VRfG5xQ3fUZFXPR530UOfGnpwvsedkVvpsTs6C4pVnjsQDHGMs6SmuH76/GHzE3mPxKW6aOE+tcUNDwO4CUB2sscjcktE/uGh2T6IvadTxlqbZa29A8DlqRyXMsuOkFgBQBYglfl9pLm2qP67yah1VXPQXX1rixumhaP6utd1QF9SrHIk+0c+hfalia+VfiCqY+GhaOh/6aGA80JNScMdyXrMWl1016E1xXV/c6B/AJDIOopPs0PmojGLxrg9M3Gbyt+4rA0h/QGARGYTswHM6sjr1zS3uOE7yXhPzh92b7+akroZIs4KAOf63T+RX1T1KQBrPTS93Fpb4Xc8W2Kt3Q/AEgA/TMV4lLl2lMRqk/1V8GBB8ZCW6pKG8XNK7tsp0Q5vPLThwOriutnIDq1W6GwAfRLsMmKMXDi16SIvHzLbNbll3N8UWp1gNwaql0dg3qopqauvLr77+EQPwV4wckF2bUndOTVF9Y+KhF4B5NsJxuiomksmvlb6QYL9bFH5snHPA6j0oasDHOgf8ouHNNeW1F/h13uyprj+xo68yGqozATgpU4QUcpYazsBNHhsXmWt/eW8efPy/YxpE2ttjrX2x4idvXpsMsag3mWH3M2gwMGi+mtBeH5Ncf1jUH3cMbKkyylosi1jtllT5ZbD6gZ0hUPHwDijRHEOonpEbAmSb7FNmNRU+pxvHW5BZ/PqGfnFQ/YD8H8JdpUNlVKBlNYWL1xdjYY/G3GWZBnz7PYSGgtrCoqHDFWVUQo9eV0Xzgews18vpSomTGkZ+3d/etuyjuZVNfnFQw4DMMaH7g5RxQKD8K01xQ2Pi+rjKmZJfue6pgkrJ2xzsXz1yAX9pSvnaBU56b/vSc8+BzAQfr6pieJzK4Afw0uNOuAnra2t51ZVVV1XWVn5B3gri/IV1to8ESlV1akA9k20P9pxZHxiJSq/VVGviwhzAJwLkXONAvnSHq0prn9XgNUA2hTSGbvM6QdIfwDDuiPYRcTx4df2m1Qwa0pTma/rgbbEwjpWG0vzTfsAKM7yp1fdV4CrVOWqcFRRU1y/AcBKBT4TwTqoqEKzEFs4vacA+yuQC1Hfv8FVMXNKS9mvfO72GyysM79z/tjO/P67JLYO7CtyAD1HBecADjry+jk1xQ3vAc4qQNoA6QAAiPaFSj9Ah6ELu8X+U8Jjh6EyGqKPg4kVpZi19m1r7e0AvB6xNERVH7TWvgXg3lAodP+MGTPecNNBTU1N346OjtMAjAZwvqpyowe5lvGJFULOr0XlfVVM9qM3AEMVGBr7Pzd9UyX/O0agCyY3lVVMQVnSxwIA2zKme+6Ihd9zHOehJFXf7gPgMAF6Xkb/E6ituHlKS5kfj+jiMmHlhK75w+79Tmde5HEFjkrCEAbQfQHpuWPWzf7yObtXubq8pXRxTXG9v/0SxSkvL6+ys7Pzf5HYDNH+ACqj0WiltfYLxB7hvSYin6jqWhFZj9g6036q2h/AAACHADiso6Njf3j7wN/Y8ydtigBTcHrFGqv2plVTATwQdBwJmD2puexK8WPOwYVJy8Zu7Nh137Mg8ptUjpskCpEp5c1l16V64AkrL25t14JTAU3qo8fkkrnlLaW3BR0F7dimTJmy3hhzCRLbGLK5gQBOAzBRVasBLFDVB1S1UVXvBHAzgBkAvgdgGLzfRV8BICnrOSnz9IrEysI6Qw8puBiKO4KOxaUIoFeWN5ddn+qkahP75CmRyU1jx0PlBiS0WzBQG6AypryptCaoAGzLmA0DcrvPV2BhUDF4JYLK8uZSP2Z8iRJWUVGxBLFEJZDPRA9usdb+NuggKH30isQKiJ2JV95SNh4iU4KOJU7vitFTy5vH/TroQASi5S2lFY46Z2iG3XUJsDQakpHlLaUPBh3L+KXjw1Oay0pV5EcAOoKOJw6OQK6e3FQ2M+hAiDZnra0XkWuQ/snVrdbawE6loPTUaxKrTcqbSmtE8T24P3sqlRpzsvTQycvGLQk6kM1Nbbn0iazunMMU+H3QscQhDNWadi04ftprpW8GHczmpjSVLgipcyQgrwUdyza8D5XTJzeXJlJFnihpKisrfwHgYgCdQceyBQpgtrV2AtI/+aMU63WJFQBMbin7fQThYgEeDjqWr1C8qcB55c1l37/m1XHrgg5nS65788LPpjSXfQ8qp6ZrYqDA48aYI8pbxk3ZXnmMoFzXcunyjl32OVKgEwB8EXQ8XyV/iEbksPKW0sVBR0K0LT2P2EYCWBZ0LJv5FMD/WGuvDzoQSk+9MrECgOnNl388qbn0AqiMBsTVltskeE+gEwbkdRVPaS77S8CxxKW8pXTx0EPyR4rK5VCky4zQMypyzpTmsjMmLRvbHHQw22OfPCUyuXncrdGIHAjBzwFsCDikVwX4dnlz6XenvV76ecCxEMXFWru8X79+x4pIBYD2AENxANybnZ1dYq19JMA4KM1lfrmFbRCIogUP2pMX/ynv01XjRGQSUnkaueAVADcPyOlq9Osw5VTqOQrmTgt7d17J0PNFnWsAOQmprXEUUeAhMXpTT7XzjNOTxFwzp+S+mUbDP4Lgp1DsmcIQXgV0Xkfz6vssbKZuUKAd2MSJEzsA3GCtrQNwHWKHsid6ykW8FMDDxpjrKyoqmlI0JmWwXp1YbWKfPCUC4DcKvXNuyT0nqeplgH4XyTjqQ/EmBIsMpHFSU2k6TV97ZmEdNOEhAA/dXHz33lGE/p9CRwM4HslJsqIAnhfIojC6H5jefPnHSRgj5XqOKZrTOLqxdvXrHac4wBio/j8AOydhuHVQNELMb8qbx/47Cf0TpZy19n0AV8+ZM6equ7v7QlW9CMBxSRpuJYB7ACy01q5K0hjUC+0QidUmAlE04SkAT80fNv/yjtz+x6s4pwvkVADFcH8HFAawUiHPiejTUSPPpNtCar9d23zpewB+AeAXtUV1ewByghqMEsUJCgwHUOih27UAmgAsUZFnkNP57JSl49f7GXc66ZkJfBzA4/bkxT/O//TdIwR6goqMAvQoAF4Ot/4cwDJRPKEhfXzoQYUvJXD49D/VRcKsEvVjDdk/ESvQG6//+DBmMi2Fy1pMAwcO9PWwcD+JyFuq+ribNqqatMfNU6dOXQvgVwB+NWvWrL0ikchpiNWrOgLAQYgdcu6GAngXwPMi8pSqPmWtXQF3C9NfQOz3MC4i8onLGL9uFWKfI3HzYcxUWAeX/y6k2edBWh1bUVNUdzNEJrppI0ZP8mt3Xc2Iewc70e4DQyJDABQ6gkJxMEBgVA3WiTrtADaKmHch8tbGgXu/1zMbRj1qi+r2cET3E8j+KqZAgAHqaIFAc8VIu6p2iMh6qKyPqvN2LqJvTWz5YZot7g6WHVKXl1cgCnIWSwAAAcVJREFU+4tgfzHYw4H0EdV8qPaFSAQibVBnvaq0Q5yVTiT0BtdMEcVYa3MAHAhgsIgMQqwaeo6qbrrpW4fYTsN2EVljjFnZv3//tydM2PaZnETxYmJFRERE5JNeuyuQiIiIKNWYWBERERH5hIkVERERkU+YWBERERH5hIkVERERkU+YWBERERH5hIkVERERkU+YWBERERH5hIkVERERkU+YWBERERH5hIkVERERkU+YWBERERH5hIkVERERkU+YWBERERH5hIkVERERkU+YWBERERH5hIkVERERkU+YWBERERH5hIkVERERkU+YWBERERH5hIkVERERkU+YWBERERH5hIkVERERkU+ygg5gc2LwvDq4w02baDRrTbLiISIiIiIiIiIiIiIiIiIiIiIiIiIiIiIiIiIiIiIiIiIiIiIiIiIiIiIiIiIiIiIiIiIiIiIiIiIiIiIiIiIiIiIiIiIiIiIiIiIiIiIiIiIiIiIiIiIiIiIiIiIiIiIiIiIiIiIiIiIiIiIiIiIiIiIiIiIiIiIiIiIiIiIiIiIiIiIiIiIiIiIiIiIiIiIiIiIiIiIiIiIiIiIiIiIiIiIiIiIiIupl/j+AUkbn7RgCiwAAAABJRU5ErkJggg==;" vertex="1" parent="1">
          <mxGeometry x="690" y="230" width="61.4" height="50" as="geometry" />
        </mxCell>
        <mxCell id="BoMmlxDTdHgLbSkk9d63-24" value="(or Docker)" style="text;html=1;align=center;verticalAlign=middle;resizable=0;points=[];autosize=1;strokeColor=none;fillColor=none;" vertex="1" parent="1">
          <mxGeometry x="680.7" y="270" width="80" height="30" as="geometry" />
        </mxCell>
        <mxCell id="BoMmlxDTdHgLbSkk9d63-25" value="" style="image;aspect=fixed;perimeter=ellipsePerimeter;html=1;align=center;shadow=0;dashed=0;fontColor=#4277BB;labelBackgroundColor=default;fontSize=12;spacingTop=3;image=img/lib/ibm/management/provider_cloud_portal_service.svg;" vertex="1" parent="1">
          <mxGeometry x="164.5" y="141" width="60" height="60" as="geometry" />
        </mxCell>
        <mxCell id="BoMmlxDTdHgLbSkk9d63-26" style="rounded=0;orthogonalLoop=1;jettySize=auto;html=1;exitX=1;exitY=0.75;exitDx=0;exitDy=0;entryX=0.125;entryY=0.25;entryDx=0;entryDy=0;entryPerimeter=0;" edge="1" parent="1" source="BoMmlxDTdHgLbSkk9d63-25" target="BoMmlxDTdHgLbSkk9d63-13">
          <mxGeometry relative="1" as="geometry" />
        </mxCell>
        <mxCell id="BoMmlxDTdHgLbSkk9d63-28" style="rounded=0;orthogonalLoop=1;jettySize=auto;html=1;exitX=0.875;exitY=0.25;exitDx=0;exitDy=0;exitPerimeter=0;entryX=0.007;entryY=0.823;entryDx=0;entryDy=0;entryPerimeter=0;" edge="1" parent="1" source="BoMmlxDTdHgLbSkk9d63-14" target="BoMmlxDTdHgLbSkk9d63-21">
          <mxGeometry relative="1" as="geometry" />
        </mxCell>
        <mxCell id="BoMmlxDTdHgLbSkk9d63-29" value="Patient Portal Front End Application" style="text;strokeColor=none;align=center;fillColor=none;html=1;verticalAlign=middle;whiteSpace=wrap;rounded=0;fontFamily=Courier New;" vertex="1" parent="1">
          <mxGeometry x="105" y="111" width="179" height="30" as="geometry" />
        </mxCell>
        <mxCell id="BoMmlxDTdHgLbSkk9d63-30" value="Patient Portal Database" style="text;strokeColor=none;align=center;fillColor=none;html=1;verticalAlign=middle;whiteSpace=wrap;rounded=0;fontFamily=Courier New;" vertex="1" parent="1">
          <mxGeometry x="566.25" y="100" width="155.5" height="30" as="geometry" />
        </mxCell>
        <mxCell id="BoMmlxDTdHgLbSkk9d63-31" value="" style="image;html=1;image=img/lib/clip_art/general/Lock_128x128.png" vertex="1" parent="1">
          <mxGeometry x="390" y="220" width="80" height="80" as="geometry" />
        </mxCell>
        <mxCell id="BoMmlxDTdHgLbSkk9d63-32" value="&lt;b&gt;&lt;font style=&quot;font-size: 14px;&quot;&gt;mTLS&lt;/font&gt;&lt;/b&gt;" style="text;strokeColor=none;align=center;fillColor=none;html=1;verticalAlign=middle;whiteSpace=wrap;rounded=0;fontFamily=Courier New;" vertex="1" parent="1">
          <mxGeometry x="380" y="185" width="100" height="30" as="geometry" />
        </mxCell>
      </root>
    </mxGraphModel>
  </diagram>
</mxfile>
